<?xml version="1.0" encoding="UTF-8"?>
<!DOCTYPE svg PUBLIC "-//W3C//DTD SVG 1.1//EN" "http://www.w3.org/Graphics/SVG/1.1/DTD/svg11.dtd">
<!-- Creator: CorelDRAW X6 -->
<svg xmlns="http://www.w3.org/2000/svg" xml:space="preserve" width="155.575mm" height="196.85mm" version="1.1" style="shape-rendering:geometricPrecision; text-rendering:geometricPrecision; image-rendering:optimizeQuality; fill-rule:evenodd; clip-rule:evenodd"
viewBox="0 0 15558 19685"
 xmlns:xlink="http://www.w3.org/1999/xlink">
 <defs>
  <style type="text/css">
   <![CDATA[
    .fil1 {fill:#EE4D64}
    .fil0 {fill:#EE4D64;fill-rule:nonzero}
   ]]>
  </style>
 </defs>
 <g id="Camada_x0020_1">
  <metadata id="CorelCorpID_0Corel-Layer"/>
  <g id="_611487424">
   <g>
    <path class="fil0" d="M1104 6924l0 0 0 -588 0 0 0 0 0 588zm1103 515l-588 0 0 0 0 -27 -3 -27 -3 -27 -3 -27 -7 -23 -7 -23 -7 -23 -10 -23 -10 -23 -10 -23 -13 -20 -13 -20 -13 -20 -17 -20 -17 -20 -17 -17 -17 -17 -20 -17 -20 -17 -20 -13 -20 -13 -20 -13 -23 -10 -23 -10 -23 -10 -23 -7 -23 -7 -23 -7 -27 -3 -27 -3 -27 -3 -27 0 0 -588 57 0 57 3 53 7 53 10 53 13 53 13 50 17 50 20 50 23 47 23 47 27 43 30 43 30 40 33 40 33 37 37 37 37 33 40 33 40 30 43 30 43 27 47 23 47 23 50 20 50 17 50 13 53 13 53 10 53 7 53 3 57 0 57 0 0 7 7zm-588 2310l0 -2310 588 0 0 2310 0 0 -588 0zm-515 1103l0 -588 0 0 27 0 27 -3 27 -3 27 -3 23 -7 23 -7 23 -7 23 -10 23 -10 23 -10 20 -13 20 -13 20 -13 20 -17 20 -17 17 -17 17 -17 17 -20 17 -20 13 -20 13 -20 13 -20 10 -23 10 -23 10 -23 7 -23 7 -23 7 -23 3 -27 3 -27 3 -27 0 -27 588 0 0 57 -3 57 -7 53 -10 53 -13 53 -13 53 -17 50 -20 50 -23 50 -23 47 -27 47 -30 43 -30 43 -33 40 -33 40 -37 37 -37 37 -40 33 -40 33 -43 30 -43 30 -47 27 -47 23 -50 23 -50 20 -50 17 -53 13 -53 13 -53 10 -53 7 -57 3 -57 0 0 0 -7 7zm0 -588l0 0 0 588 0 0 0 0 0 -588zm-1103 -515l588 0 0 0 0 27 3 27 3 27 3 27 7 23 7 23 7 23 10 23 10 23 10 23 13 20 13 20 13 20 17 20 17 20 17 17 17 17 20 17 20 17 20 13 20 13 20 13 23 10 23 10 23 10 23 7 23 7 23 7 27 3 27 3 27 3 27 0 0 588 -57 0 -57 -3 -53 -7 -53 -10 -53 -13 -53 -13 -50 -17 -50 -20 -50 -23 -47 -23 -47 -27 -43 -30 -43 -30 -40 -33 -40 -33 -37 -37 -37 -37 -33 -40 -33 -40 -30 -43 -30 -43 -27 -47 -23 -47 -23 -50 -20 -50 -17 -50 -13 -53 -13 -53 -10 -53 -7 -53 -3 -57 0 -57 0 0 -7 -7zm588 -2310l0 2310 -588 0 0 -2310 0 0 588 0zm515 -1103l0 588 0 0 -27 0 -27 3 -27 3 -27 3 -23 7 -23 7 -23 7 -23 10 -23 10 -23 10 -20 13 -20 13 -20 13 -20 17 -20 17 -17 17 -17 17 -17 20 -17 20 -13 20 -13 20 -13 20 -10 23 -10 23 -10 23 -7 23 -7 23 -7 23 -3 27 -3 27 -3 27 0 27 -588 0 0 -57 3 -57 7 -53 10 -53 13 -53 13 -53 17 -50 20 -50 23 -50 23 -47 27 -47 30 -43 30 -43 33 -40 33 -40 37 -37 37 -37 40 -33 40 -33 43 -30 43 -30 47 -27 47 -23 50 -23 50 -20 50 -17 53 -13 53 -13 53 -10 53 -7 57 -3 57 0 0 0 7 -7z"/>
    <path class="fil0" d="M2719 5624l0 0 0 0 0 0 0 -294 0 294zm1103 809l-588 0 0 0 0 -27 -3 -27 -3 -27 -3 -27 -7 -23 -7 -23 -7 -23 -10 -23 -10 -23 -10 -23 -13 -20 -13 -20 -13 -20 -17 -20 -17 -20 -17 -17 -17 -17 -20 -17 -20 -17 -20 -13 -20 -13 -20 -13 -23 -10 -23 -10 -23 -10 -23 -7 -23 -7 -23 -7 -27 -3 -27 -3 -27 -3 -27 0 0 -588 57 0 57 3 53 7 53 10 53 13 53 13 50 17 50 20 50 23 47 23 47 27 43 30 43 30 40 33 40 33 37 37 37 37 33 40 33 40 30 43 30 43 27 47 23 47 23 50 20 50 17 50 13 53 13 53 10 53 7 53 3 57 0 57 0 0 7 7zm-588 4302l0 -4301 588 0 0 4301 0 0 -588 0zm-515 1103l0 -588 0 0 27 0 27 -3 27 -3 27 -3 23 -7 23 -7 23 -7 23 -10 23 -10 23 -10 20 -13 20 -13 20 -13 20 -17 20 -17 17 -17 17 -17 17 -20 17 -20 13 -20 13 -20 13 -20 10 -23 10 -23 10 -23 7 -23 7 -23 7 -23 3 -27 3 -27 3 -27 0 -27 588 0 0 57 -3 57 -7 53 -10 53 -13 53 -13 53 -17 50 -20 50 -23 50 -23 47 -27 47 -30 43 -30 43 -33 40 -33 40 -37 37 -37 37 -40 33 -40 33 -43 30 -43 30 -47 27 -47 23 -50 23 -50 20 -50 17 -53 13 -53 13 -53 10 -53 7 -57 3 -57 0 0 0 -7 7zm0 -294l0 0 0 0 0 0 0 294 0 -294zm-1103 -809l588 0 0 0 0 27 3 27 3 27 3 27 7 23 7 23 7 23 10 23 10 23 10 23 13 20 13 20 13 20 17 20 17 20 17 17 17 17 20 17 20 17 20 13 20 13 20 13 23 10 23 10 23 10 23 7 23 7 23 7 27 3 27 3 27 3 27 0 0 588 -57 0 -57 -3 -53 -7 -53 -10 -53 -13 -53 -13 -50 -17 -50 -20 -50 -23 -47 -23 -47 -27 -43 -30 -43 -30 -40 -33 -40 -33 -37 -37 -37 -37 -33 -40 -33 -40 -30 -43 -30 -43 -27 -47 -23 -47 -23 -50 -20 -50 -17 -50 -13 -53 -13 -53 -10 -53 -7 -53 -3 -57 0 -57 0 0 -7 -7zm588 -4302l0 4302 -588 0 0 -4302 0 0 588 0zm515 -1103l0 588 0 0 -27 0 -27 3 -27 3 -27 3 -23 7 -23 7 -23 7 -23 10 -23 10 -23 10 -20 13 -20 13 -20 13 -20 17 -20 17 -17 17 -17 17 -17 20 -17 20 -13 20 -13 20 -13 20 -10 23 -10 23 -10 23 -7 23 -7 23 -7 23 -3 27 -3 27 -3 27 0 27 -588 0 0 -57 3 -57 7 -53 10 -53 13 -53 13 -53 17 -50 20 -50 23 -50 23 -47 27 -47 30 -43 30 -43 33 -40 33 -40 37 -37 37 -37 40 -33 40 -33 43 -30 43 -30 47 -27 47 -23 50 -23 50 -20 50 -17 53 -13 53 -13 53 -10 53 -7 57 -3 57 0 0 0 7 -7z"/>
    <path class="fil1" d="M4303 4537l0 0c602,0 1096,511 1096,1136l0 1791 -602 0 0 -1738c0,-304 -201,-552 -491,-552l0 0c-291,0 -478,247 -478,552l0 4883 -592 0 0 -4937c0,-625 468,-1136 1070,-1136l-3 0z"/>
    <path class="fil1" d="M5108 7141l4108 0c174,0 314,140 314,314l0 0c0,174 -140,314 -314,314l-4108 0c-174,0 -314,-140 -314,-314l0 0c0,-174 140,-314 314,-314z"/>
    <path class="fil1" d="M4303 12646l0 0c602,0 1096,-511 1096,-1136l0 -297 0 -1487 0 -7 0 0c-3,-170 -137,-308 -301,-308l0 0c-164,0 -297,137 -301,308l0 0 0 7 0 1487 0 244c0,304 -201,551 -491,551l0 0c-291,0 -478,-247 -478,-551l0 -4883 -592 0 0 4937c0,625 468,1136 1070,1136l-3 0z"/>
    <path class="fil0" d="M14453 10259l0 0 0 588 0 0 0 0 0 -588zm-1103 -515l588 0 0 0 0 27 3 27 3 27 3 27 7 23 7 23 7 23 10 23 10 23 10 23 13 20 13 20 13 20 17 20 17 20 17 17 17 17 20 17 20 17 20 13 20 13 20 13 23 10 23 10 23 10 23 7 23 7 23 7 27 3 27 3 27 3 27 0 0 588 -57 0 -57 -3 -53 -7 -53 -10 -53 -13 -53 -13 -50 -17 -50 -20 -50 -23 -47 -23 -47 -27 -43 -30 -43 -30 -40 -33 -40 -33 -37 -37 -37 -37 -33 -40 -33 -40 -30 -43 -30 -43 -27 -47 -23 -47 -23 -50 -20 -50 -17 -50 -13 -53 -13 -53 -10 -53 -7 -53 -3 -57 0 -57 0 0 -7 -7zm588 -2310l0 2310 -588 0 0 -2310 0 0 588 0zm515 -1103l0 588 0 0 -27 0 -27 3 -27 3 -27 3 -23 7 -23 7 -23 7 -23 10 -23 10 -23 10 -20 13 -20 13 -20 13 -20 17 -20 17 -17 17 -17 17 -17 20 -17 20 -13 20 -13 20 -13 20 -10 23 -10 23 -10 23 -7 23 -7 23 -7 23 -3 27 -3 27 -3 27 0 27 -588 0 0 -57 3 -57 7 -53 10 -53 13 -53 13 -53 17 -50 20 -50 23 -50 23 -47 27 -47 30 -43 30 -43 33 -40 33 -40 37 -37 37 -37 40 -33 40 -33 43 -30 43 -30 47 -27 47 -23 50 -23 50 -20 50 -17 53 -13 53 -13 53 -10 53 -7 57 -3 57 0 0 0 7 -7zm0 588l0 0 0 -588 0 0 0 0 0 588zm1103 515l-588 0 0 0 0 -27 -3 -27 -3 -27 -3 -27 -7 -23 -7 -23 -7 -23 -10 -23 -10 -23 -10 -23 -13 -20 -13 -20 -13 -20 -17 -20 -17 -20 -17 -17 -17 -17 -20 -17 -20 -17 -20 -13 -20 -13 -20 -13 -23 -10 -23 -10 -23 -10 -23 -7 -23 -7 -23 -7 -27 -3 -27 -3 -27 -3 -27 0 0 -588 57 0 57 3 53 7 53 10 53 13 53 13 50 17 50 20 50 23 47 23 47 27 43 30 43 30 40 33 40 33 37 37 37 37 33 40 33 40 30 43 30 43 27 47 23 47 23 50 20 50 17 50 13 53 13 53 10 53 7 53 3 57 0 57 0 0 7 7zm-588 2310l0 -2310 588 0 0 2310 0 0 -588 0zm-515 1103l0 -588 0 0 27 0 27 -3 27 -3 27 -3 23 -7 23 -7 23 -7 23 -10 23 -10 23 -10 20 -13 20 -13 20 -13 20 -17 20 -17 17 -17 17 -17 17 -20 17 -20 13 -20 13 -20 13 -20 10 -23 10 -23 10 -23 7 -23 7 -23 7 -23 3 -27 3 -27 3 -27 0 -27 588 0 0 57 -3 57 -7 53 -10 53 -13 53 -13 53 -17 50 -20 50 -23 50 -23 47 -27 47 -30 43 -30 43 -33 40 -33 40 -37 37 -37 37 -40 33 -40 33 -43 30 -43 30 -47 27 -47 23 -50 23 -50 20 -50 17 -53 13 -53 13 -53 10 -53 7 -57 3 -57 0 0 0 -7 7z"/>
    <path class="fil0" d="M12839 11269l0 0 0 588 0 0 0 0 0 -588zm-1103 -515l588 0 0 0 0 27 3 27 3 27 3 27 7 23 7 23 7 23 10 23 10 23 10 23 13 20 13 20 13 20 17 20 17 20 17 17 17 17 20 17 20 17 20 13 20 13 20 13 23 10 23 10 23 10 23 7 23 7 23 7 27 3 27 3 27 3 27 0 0 588 -57 0 -57 -3 -53 -7 -53 -10 -53 -13 -53 -13 -50 -17 -50 -20 -50 -23 -47 -23 -47 -27 -43 -30 -43 -30 -40 -33 -40 -33 -37 -37 -37 -37 -33 -40 -33 -40 -30 -43 -30 -43 -27 -47 -23 -47 -23 -50 -20 -50 -17 -50 -13 -53 -13 -53 -10 -53 -7 -53 -3 -57 0 -57 0 0 -7 -7zm588 -4302l0 4301 -588 0 0 -4301 0 0 588 0zm515 -1103l0 588 0 0 -27 0 -27 3 -27 3 -27 3 -23 7 -23 7 -23 7 -23 10 -23 10 -23 10 -20 13 -20 13 -20 13 -20 17 -20 17 -17 17 -17 17 -17 20 -17 20 -13 20 -13 20 -13 20 -10 23 -10 23 -10 23 -7 23 -7 23 -7 23 -3 27 -3 27 -3 27 0 27 -588 0 0 -57 3 -57 7 -53 10 -53 13 -53 13 -53 17 -50 20 -50 23 -50 23 -47 27 -47 30 -43 30 -43 33 -40 33 -40 37 -37 37 -37 40 -33 40 -33 43 -30 43 -30 47 -27 47 -23 50 -23 50 -20 50 -17 53 -13 53 -13 53 -10 53 -7 57 -3 57 0 0 0 7 -7zm0 588l0 0 0 -588 0 0 0 0 0 588zm1103 515l-588 0 0 0 0 -27 -3 -27 -3 -27 -3 -27 -7 -23 -7 -23 -7 -23 -10 -23 -10 -23 -10 -23 -13 -20 -13 -20 -13 -20 -17 -20 -17 -20 -17 -17 -17 -17 -20 -17 -20 -17 -20 -13 -20 -13 -20 -13 -23 -10 -23 -10 -23 -10 -23 -7 -23 -7 -23 -7 -27 -3 -27 -3 -27 -3 -27 0 0 -588 57 0 57 3 53 7 53 10 53 13 53 13 50 17 50 20 50 23 47 23 47 27 43 30 43 30 40 33 40 33 37 37 37 37 33 40 33 40 30 43 30 43 27 47 23 47 23 50 20 50 17 50 13 53 13 53 10 53 7 53 3 57 0 57 0 0 7 7zm-588 4302l0 -4302 588 0 0 4302 0 0 -588 0zm-515 1103l0 -588 0 0 27 0 27 -3 27 -3 27 -3 23 -7 23 -7 23 -7 23 -10 23 -10 23 -10 20 -13 20 -13 20 -13 20 -17 20 -17 17 -17 17 -17 17 -20 17 -20 13 -20 13 -20 13 -20 10 -23 10 -23 10 -23 7 -23 7 -23 7 -23 3 -27 3 -27 3 -27 0 -27 588 0 0 57 -3 57 -7 53 -10 53 -13 53 -13 53 -17 50 -20 50 -23 50 -23 47 -27 47 -30 43 -30 43 -33 40 -33 40 -37 37 -37 37 -40 33 -40 33 -43 30 -43 30 -47 27 -47 23 -50 23 -50 20 -50 17 -53 13 -53 13 -53 10 -53 7 -57 3 -57 0 0 0 -7 7z"/>
    <path class="fil1" d="M11255 12646l0 0c-602,0 -1096,-511 -1096,-1136l0 -1468 602 0 0 1414c0,304 201,551 491,551l0 0c291,0 478,-247 478,-551l0 -4883 592 0 0 4937c0,625 -468,1136 -1070,1136l3 0z"/>
    <path class="fil1" d="M10449 10309c-1310,-405 -2619,-438 -3929,-55 -45,13 -91,27 -136,41 -183,58 -357,-122 -357,-301 0,0 0,0 0,0 0,-127 83,-222 184,-286 782,-502 3533,-505 4359,-4 105,64 194,159 194,290l0 0c0,174 -140,314 -314,314z"/>
    <path class="fil1" d="M11255 4537l0 0c-602,0 -1096,511 -1096,1136l0 297 0 1487 0 7 0 0c3,170 137,308 301,308l0 0c164,0 297,-137 301,-308l0 0 0 -7 0 -1487 0 -244c0,-304 201,-552 491,-552l0 0c291,0 478,247 478,552l0 4883 592 0 0 -4937c0,-625 -468,-1136 -1070,-1136l3 0z"/>
    <g>
     <g>
      <path class="fil1" d="M10622 8975l-282 -282 -282 282c-28,28 -74,28 -102,0l0 0c-28,-28 -28,-74 0,-102l282 -282 -282 -282c-28,-28 -28,-74 0,-102l0 0c28,-28 74,-28 102,0l282 282 282 -282c28,-28 74,-28 102,0l0 0c28,28 28,74 0,102l-282 282 282 282c28,28 28,74 0,102l0 0c-28,28 -74,28 -102,0z"/>
      <path id="1" class="fil0" d="M10415 8618l282 282 -150 150 -282 -282 0 -150 150 0zm0 0l-150 150 -4 -4 -4 -4 -3 -4 -3 -4 -3 -4 -3 -5 -2 -5 -2 -5 -2 -5 -2 -5 -1 -5 -1 -5 -1 -5 -1 -5 0 -5 0 -5 0 -5 0 -5 1 -5 1 -5 1 -5 1 -5 2 -5 2 -5 2 -5 2 -5 3 -5 3 -4 3 -4 3 -4 4 -4 4 -4 4 -4 4 -4 4 -3 4 -3 4 -3 5 -3 5 -2 5 -2 5 -2 5 -2 5 -1 5 -1 5 -1 5 -1 5 0 5 0 5 0 5 0 5 1 5 1 5 1 5 1 5 2 5 2 5 2 5 2 5 3 4 3 4 3 4 3 4 4 4 4zm-432 282l282 -282 150 150 -282 282 0 0 -150 -150zm0 0l150 150 -4 4 -4 4 -4 3 -4 3 -4 3 -5 3 -5 2 -5 2 -5 2 -5 2 -5 1 -5 1 -5 1 -5 1 -5 0 -5 0 -5 0 -5 0 -5 -1 -5 -1 -5 -1 -5 -1 -5 -2 -5 -2 -5 -2 -5 -2 -5 -3 -4 -3 -4 -3 -4 -3 -4 -4 -4 -4 -4 -4 -4 -4 -3 -4 -3 -4 -3 -4 -3 -5 -2 -5 -2 -5 -2 -5 -2 -5 -1 -5 -1 -5 -1 -5 -1 -5 0 -5 0 -5 0 -5 0 -5 1 -5 1 -5 1 -5 1 -5 2 -5 2 -5 2 -5 2 -5 3 -5 3 -4 3 -4 3 -4 4 -4 4 -4zm-102 150l150 -150 0 0 -1 -1 -1 -1 -1 -1 -1 -1 -1 -1 -1 -1 -1 -1 -2 -1 -2 -1 -2 -1 -2 0 -2 0 -2 0 -2 0 -2 0 -2 0 -2 0 -2 0 -2 0 -2 0 -2 0 -2 0 -2 1 -2 1 -2 1 -1 1 -1 1 -1 1 -1 1 -1 1 -1 1 -1 1 150 150 -7 6 -7 6 -7 5 -7 5 -8 5 -8 4 -8 4 -8 4 -8 3 -8 3 -8 2 -8 2 -8 1 -8 1 -8 1 -9 0 -9 0 -8 -1 -8 -1 -8 -1 -8 -2 -8 -2 -8 -3 -8 -3 -8 -4 -8 -4 -8 -4 -8 -5 -7 -5 -7 -5 -7 -6 -7 -6 0 0zm150 -150l-150 150 -4 -4 -4 -4 -3 -4 -3 -4 -3 -4 -3 -5 -2 -5 -2 -5 -2 -5 -2 -5 -1 -5 -1 -5 -1 -5 -1 -5 0 -5 0 -5 0 -5 0 -5 1 -5 1 -5 1 -5 1 -5 2 -5 2 -5 2 -5 2 -5 3 -5 3 -4 3 -4 3 -4 4 -4 4 -4 4 -4 4 -4 4 -3 4 -3 4 -3 5 -3 5 -2 5 -2 5 -2 5 -2 5 -1 5 -1 5 -1 5 -1 5 0 5 0 5 0 5 0 5 1 5 1 5 1 5 1 5 2 5 2 5 2 5 2 5 3 4 3 4 3 4 3 4 4 4 4zm-75 75l0 0 0 0 0 0 -75 75 75 -75zm75 -75l-150 150 -4 -4 -4 -4 -3 -4 -3 -4 -3 -4 -3 -5 -2 -5 -2 -5 -2 -5 -2 -5 -1 -5 -1 -5 -1 -5 -1 -5 0 -5 0 -5 0 -5 0 -5 1 -5 1 -5 1 -5 1 -5 2 -5 2 -5 2 -5 2 -5 3 -5 3 -4 3 -4 3 -4 4 -4 4 -4 4 -4 4 -4 4 -3 4 -3 4 -3 5 -3 5 -2 5 -2 5 -2 5 -2 5 -1 5 -1 5 -1 5 -1 5 0 5 0 5 0 5 0 5 1 5 1 5 1 5 1 5 2 5 2 5 2 5 2 5 3 4 3 4 3 4 3 4 4 4 4zm-150 -102l150 150 0 0 1 -1 1 -1 1 -1 1 -1 1 -1 1 -1 1 -1 1 -2 1 -2 1 -2 0 -2 0 -2 0 -2 0 -2 0 -2 0 -2 0 -2 0 -2 0 -2 0 -2 0 -2 0 -2 -1 -2 -1 -2 -1 -2 -1 -1 -1 -1 -1 -1 -1 -1 -1 -1 -1 -1 -1 -1 -150 150 -6 -7 -6 -7 -5 -7 -5 -7 -5 -8 -4 -8 -4 -8 -4 -8 -3 -8 -3 -8 -2 -8 -2 -8 -1 -8 -1 -8 -1 -8 0 -9 0 -9 1 -8 1 -8 1 -8 2 -8 2 -8 3 -8 3 -8 4 -8 4 -8 4 -8 5 -8 5 -7 5 -7 6 -7 6 -7 0 0zm150 150l-150 -150 4 -4 4 -4 4 -3 4 -3 4 -3 5 -3 5 -2 5 -2 5 -2 5 -2 5 -1 5 -1 5 -1 5 -1 5 0 5 0 5 0 5 0 5 1 5 1 5 1 5 1 5 2 5 2 5 2 5 2 5 3 4 3 4 3 4 3 4 4 4 4 4 4 4 4 3 4 3 4 3 4 3 5 2 5 2 5 2 5 2 5 1 5 1 5 1 5 1 5 0 5 0 5 0 5 0 5 -1 5 -1 5 -1 5 -1 5 -2 5 -2 5 -2 5 -2 5 -3 5 -3 4 -3 4 -3 4 -4 4 -4 4zm282 -282l-282 282 -150 -150 282 -282 150 0 0 150zm0 0l-150 -150 4 -4 4 -4 4 -3 4 -3 4 -3 5 -3 5 -2 5 -2 5 -2 5 -2 5 -1 5 -1 5 -1 5 -1 5 0 5 0 5 0 5 0 5 1 5 1 5 1 5 1 5 2 5 2 5 2 5 2 5 3 4 3 4 3 4 3 4 4 4 4 4 4 4 4 3 4 3 4 3 4 3 5 2 5 2 5 2 5 2 5 1 5 1 5 1 5 1 5 0 5 0 5 0 5 0 5 -1 5 -1 5 -1 5 -1 5 -2 5 -2 5 -2 5 -2 5 -3 5 -3 4 -3 4 -3 4 -4 4 -4 4zm-282 -432l282 282 -150 150 -282 -282 0 0 150 -150zm0 0l-150 150 -4 -4 -4 -4 -3 -4 -3 -4 -3 -4 -3 -5 -2 -5 -2 -5 -2 -5 -2 -5 -1 -5 -1 -5 -1 -5 -1 -5 0 -5 0 -5 0 -5 0 -5 1 -5 1 -5 1 -5 1 -5 2 -5 2 -5 2 -5 2 -5 3 -5 3 -4 3 -4 3 -4 4 -4 4 -4 4 -4 4 -4 4 -3 4 -3 4 -3 5 -3 5 -2 5 -2 5 -2 5 -2 5 -1 5 -1 5 -1 5 -1 5 0 5 0 5 0 5 0 5 1 5 1 5 1 5 1 5 2 5 2 5 2 5 2 5 3 4 3 4 3 4 3 4 4 4 4zm-150 -102l150 150 0 0 1 -1 1 -1 1 -1 1 -1 1 -1 1 -1 1 -1 1 -2 1 -2 1 -2 0 -2 0 -2 0 -2 0 -2 0 -2 0 -2 0 -2 0 -2 0 -2 0 -2 0 -2 0 -2 -1 -2 -1 -2 -1 -2 -1 -1 -1 -1 -1 -1 -1 -1 -1 -1 -1 -1 -1 -1 -150 150 -6 -7 -6 -7 -5 -7 -5 -7 -5 -8 -4 -8 -4 -8 -4 -8 -3 -8 -3 -8 -2 -8 -2 -8 -1 -8 -1 -8 -1 -8 0 -9 0 -9 1 -8 1 -8 1 -8 2 -8 2 -8 3 -8 3 -8 4 -8 4 -8 4 -8 5 -8 5 -7 5 -7 6 -7 6 -7 0 0zm150 150l-150 -150 4 -4 4 -4 4 -3 4 -3 4 -3 5 -3 5 -2 5 -2 5 -2 5 -2 5 -1 5 -1 5 -1 5 -1 5 0 5 0 5 0 5 0 5 1 5 1 5 1 5 1 5 2 5 2 5 2 5 2 5 3 4 3 4 3 4 3 4 4 4 4 4 4 4 4 3 4 3 4 3 4 3 5 2 5 2 5 2 5 2 5 1 5 1 5 1 5 1 5 0 5 0 5 0 5 0 5 -1 5 -1 5 -1 5 -1 5 -2 5 -2 5 -2 5 -2 5 -3 5 -3 4 -3 4 -3 4 -4 4 -4 4zm-75 -75l0 0 0 0 0 0 -75 -75 75 75zm75 75l-150 -150 4 -4 4 -4 4 -3 4 -3 4 -3 5 -3 5 -2 5 -2 5 -2 5 -2 5 -1 5 -1 5 -1 5 -1 5 0 5 0 5 0 5 0 5 1 5 1 5 1 5 1 5 2 5 2 5 2 5 2 5 3 4 3 4 3 4 3 4 4 4 4 4 4 4 4 3 4 3 4 3 4 3 5 2 5 2 5 2 5 2 5 1 5 1 5 1 5 1 5 0 5 0 5 0 5 0 5 -1 5 -1 5 -1 5 -1 5 -2 5 -2 5 -2 5 -2 5 -3 5 -3 4 -3 4 -3 4 -4 4 -4 4zm102 -150l-150 150 0 0 1 1 1 1 1 1 1 1 1 1 1 1 1 1 2 1 2 1 2 1 2 0 2 0 2 0 2 0 2 0 2 0 2 0 2 0 2 0 2 0 2 0 2 0 2 -1 2 -1 2 -1 1 -1 1 -1 1 -1 1 -1 1 -1 1 -1 1 -1 -150 -150 7 -6 7 -6 7 -5 7 -5 8 -5 8 -4 8 -4 8 -4 8 -3 8 -3 8 -2 8 -2 8 -1 8 -1 8 -1 9 0 9 0 8 1 8 1 8 1 8 2 8 2 8 3 8 3 8 4 8 4 8 4 8 5 7 5 7 5 7 6 7 6 0 0zm-150 150l150 -150 4 4 4 4 3 4 3 4 3 4 3 5 2 5 2 5 2 5 2 5 1 5 1 5 1 5 1 5 0 5 0 5 0 5 0 5 -1 5 -1 5 -1 5 -1 5 -2 5 -2 5 -2 5 -2 5 -3 5 -3 4 -3 4 -3 4 -4 4 -4 4 -4 4 -4 4 -4 3 -4 3 -4 3 -5 3 -5 2 -5 2 -5 2 -5 2 -5 1 -5 1 -5 1 -5 1 -5 0 -5 0 -5 0 -5 0 -5 -1 -5 -1 -5 -1 -5 -1 -5 -2 -5 -2 -5 -2 -5 -2 -5 -3 -4 -3 -4 -3 -4 -3 -4 -4 -4 -4zm282 282l-282 -282 150 -150 282 282 0 150 -150 0zm0 0l150 -150 4 4 4 4 3 4 3 4 3 4 3 5 2 5 2 5 2 5 2 5 1 5 1 5 1 5 1 5 0 5 0 5 0 5 0 5 -1 5 -1 5 -1 5 -1 5 -2 5 -2 5 -2 5 -2 5 -3 5 -3 4 -3 4 -3 4 -4 4 -4 4 -4 4 -4 4 -4 3 -4 3 -4 3 -5 3 -5 2 -5 2 -5 2 -5 2 -5 1 -5 1 -5 1 -5 1 -5 0 -5 0 -5 0 -5 0 -5 -1 -5 -1 -5 -1 -5 -1 -5 -2 -5 -2 -5 -2 -5 -2 -5 -3 -4 -3 -4 -3 -4 -3 -4 -4 -4 -4zm432 -282l-282 282 -150 -150 282 -282 0 0 150 150zm0 0l-150 -150 4 -4 4 -4 4 -3 4 -3 4 -3 5 -3 5 -2 5 -2 5 -2 5 -2 5 -1 5 -1 5 -1 5 -1 5 0 5 0 5 0 5 0 5 1 5 1 5 1 5 1 5 2 5 2 5 2 5 2 5 3 4 3 4 3 4 3 4 4 4 4 4 4 4 4 3 4 3 4 3 4 3 5 2 5 2 5 2 5 2 5 1 5 1 5 1 5 1 5 0 5 0 5 0 5 0 5 -1 5 -1 5 -1 5 -1 5 -2 5 -2 5 -2 5 -2 5 -3 5 -3 4 -3 4 -3 4 -4 4 -4 4zm102 -150l-150 150 0 0 1 1 1 1 1 1 1 1 1 1 1 1 1 1 2 1 2 1 2 1 2 0 2 0 2 0 2 0 2 0 2 0 2 0 2 0 2 0 2 0 2 0 2 0 2 -1 2 -1 2 -1 1 -1 1 -1 1 -1 1 -1 1 -1 1 -1 1 -1 -150 -150 7 -6 7 -6 7 -5 7 -5 8 -5 8 -4 8 -4 8 -4 8 -3 8 -3 8 -2 8 -2 8 -1 8 -1 8 -1 9 0 9 0 8 1 8 1 8 1 8 2 8 2 8 3 8 3 8 4 8 4 8 4 8 5 7 5 7 5 7 6 7 6 0 0zm-150 150l150 -150 4 4 4 4 3 4 3 4 3 4 3 5 2 5 2 5 2 5 2 5 1 5 1 5 1 5 1 5 0 5 0 5 0 5 0 5 -1 5 -1 5 -1 5 -1 5 -2 5 -2 5 -2 5 -2 5 -3 5 -3 4 -3 4 -3 4 -4 4 -4 4 -4 4 -4 4 -4 3 -4 3 -4 3 -5 3 -5 2 -5 2 -5 2 -5 2 -5 1 -5 1 -5 1 -5 1 -5 0 -5 0 -5 0 -5 0 -5 -1 -5 -1 -5 -1 -5 -1 -5 -2 -5 -2 -5 -2 -5 -2 -5 -3 -4 -3 -4 -3 -4 -3 -4 -4 -4 -4zm75 -75l0 0 0 0 0 0 75 -75 -75 75zm-75 75l150 -150 4 4 4 4 3 4 3 4 3 4 3 5 2 5 2 5 2 5 2 5 1 5 1 5 1 5 1 5 0 5 0 5 0 5 0 5 -1 5 -1 5 -1 5 -1 5 -2 5 -2 5 -2 5 -2 5 -3 5 -3 4 -3 4 -3 4 -4 4 -4 4 -4 4 -4 4 -4 3 -4 3 -4 3 -5 3 -5 2 -5 2 -5 2 -5 2 -5 1 -5 1 -5 1 -5 1 -5 0 -5 0 -5 0 -5 0 -5 -1 -5 -1 -5 -1 -5 -1 -5 -2 -5 -2 -5 -2 -5 -2 -5 -3 -4 -3 -4 -3 -4 -3 -4 -4 -4 -4zm150 102l-150 -150 0 0 -1 1 -1 1 -1 1 -1 1 -1 1 -1 1 -1 1 -1 2 -1 2 -1 2 0 2 0 2 0 2 0 2 0 2 0 2 0 2 0 2 0 2 0 2 0 2 0 2 1 2 1 2 1 2 1 1 1 1 1 1 1 1 1 1 1 1 1 1 150 -150 6 7 6 7 5 7 5 7 5 8 4 8 4 8 4 8 3 8 3 8 2 8 2 8 1 8 1 8 1 8 0 9 0 9 -1 8 -1 8 -1 8 -2 8 -2 8 -3 8 -3 8 -4 8 -4 8 -4 8 -5 8 -5 7 -5 7 -6 7 -6 7 0 0zm-150 -150l150 150 -4 4 -4 4 -4 3 -4 3 -4 3 -5 3 -5 2 -5 2 -5 2 -5 2 -5 1 -5 1 -5 1 -5 1 -5 0 -5 0 -5 0 -5 0 -5 -1 -5 -1 -5 -1 -5 -1 -5 -2 -5 -2 -5 -2 -5 -2 -5 -3 -4 -3 -4 -3 -4 -3 -4 -4 -4 -4 -4 -4 -4 -4 -3 -4 -3 -4 -3 -4 -3 -5 -2 -5 -2 -5 -2 -5 -2 -5 -1 -5 -1 -5 -1 -5 -1 -5 0 -5 0 -5 0 -5 0 -5 1 -5 1 -5 1 -5 1 -5 2 -5 2 -5 2 -5 2 -5 3 -5 3 -4 3 -4 3 -4 4 -4 4 -4zm-282 282l282 -282 150 150 -282 282 -150 0 0 -150zm0 0l150 150 -4 4 -4 4 -4 3 -4 3 -4 3 -5 3 -5 2 -5 2 -5 2 -5 2 -5 1 -5 1 -5 1 -5 1 -5 0 -5 0 -5 0 -5 0 -5 -1 -5 -1 -5 -1 -5 -1 -5 -2 -5 -2 -5 -2 -5 -2 -5 -3 -4 -3 -4 -3 -4 -3 -4 -4 -4 -4 -4 -4 -4 -4 -3 -4 -3 -4 -3 -4 -3 -5 -2 -5 -2 -5 -2 -5 -2 -5 -1 -5 -1 -5 -1 -5 -1 -5 0 -5 0 -5 0 -5 0 -5 1 -5 1 -5 1 -5 1 -5 2 -5 2 -5 2 -5 2 -5 3 -5 3 -4 3 -4 3 -4 4 -4 4 -4zm282 432l-282 -282 150 -150 282 282 0 0 -150 150zm0 0l150 -150 4 4 4 4 3 4 3 4 3 4 3 5 2 5 2 5 2 5 2 5 1 5 1 5 1 5 1 5 0 5 0 5 0 5 0 5 -1 5 -1 5 -1 5 -1 5 -2 5 -2 5 -2 5 -2 5 -3 5 -3 4 -3 4 -3 4 -4 4 -4 4 -4 4 -4 4 -4 3 -4 3 -4 3 -5 3 -5 2 -5 2 -5 2 -5 2 -5 1 -5 1 -5 1 -5 1 -5 0 -5 0 -5 0 -5 0 -5 -1 -5 -1 -5 -1 -5 -1 -5 -2 -5 -2 -5 -2 -5 -2 -5 -3 -4 -3 -4 -3 -4 -3 -4 -4 -4 -4zm150 102l-150 -150 0 0 -1 1 -1 1 -1 1 -1 1 -1 1 -1 1 -1 1 -1 2 -1 2 -1 2 0 2 0 2 0 2 0 2 0 2 0 2 0 2 0 2 0 2 0 2 0 2 0 2 1 2 1 2 1 2 1 1 1 1 1 1 1 1 1 1 1 1 1 1 150 -150 6 7 6 7 5 7 5 7 5 8 4 8 4 8 4 8 3 8 3 8 2 8 2 8 1 8 1 8 1 8 0 9 0 9 -1 8 -1 8 -1 8 -2 8 -2 8 -3 8 -3 8 -4 8 -4 8 -4 8 -5 8 -5 7 -5 7 -6 7 -6 7 0 0zm-150 -150l150 150 -4 4 -4 4 -4 3 -4 3 -4 3 -5 3 -5 2 -5 2 -5 2 -5 2 -5 1 -5 1 -5 1 -5 1 -5 0 -5 0 -5 0 -5 0 -5 -1 -5 -1 -5 -1 -5 -1 -5 -2 -5 -2 -5 -2 -5 -2 -5 -3 -4 -3 -4 -3 -4 -3 -4 -4 -4 -4 -4 -4 -4 -4 -3 -4 -3 -4 -3 -4 -3 -5 -2 -5 -2 -5 -2 -5 -2 -5 -1 -5 -1 -5 -1 -5 -1 -5 0 -5 0 -5 0 -5 0 -5 1 -5 1 -5 1 -5 1 -5 2 -5 2 -5 2 -5 2 -5 3 -5 3 -4 3 -4 3 -4 4 -4 4 -4zm75 75l0 0 0 0 0 0 75 75 -75 -75zm-75 -75l150 150 -4 4 -4 4 -4 3 -4 3 -4 3 -5 3 -5 2 -5 2 -5 2 -5 2 -5 1 -5 1 -5 1 -5 1 -5 0 -5 0 -5 0 -5 0 -5 -1 -5 -1 -5 -1 -5 -1 -5 -2 -5 -2 -5 -2 -5 -2 -5 -3 -4 -3 -4 -3 -4 -3 -4 -4 -4 -4 -4 -4 -4 -4 -3 -4 -3 -4 -3 -4 -3 -5 -2 -5 -2 -5 -2 -5 -2 -5 -1 -5 -1 -5 -1 -5 -1 -5 0 -5 0 -5 0 -5 0 -5 1 -5 1 -5 1 -5 1 -5 2 -5 2 -5 2 -5 2 -5 3 -5 3 -4 3 -4 3 -4 4 -4 4 -4zm-102 150l150 -150 0 0 -1 -1 -1 -1 -1 -1 -1 -1 -1 -1 -1 -1 -1 -1 -2 -1 -2 -1 -2 -1 -2 0 -2 0 -2 0 -2 0 -2 0 -2 0 -2 0 -2 0 -2 0 -2 0 -2 0 -2 0 -2 1 -2 1 -2 1 -1 1 -1 1 -1 1 -1 1 -1 1 -1 1 -1 1 150 150 -7 6 -7 6 -7 5 -7 5 -8 5 -8 4 -8 4 -8 4 -8 3 -8 3 -8 2 -8 2 -8 1 -8 1 -8 1 -9 0 -9 0 -8 -1 -8 -1 -8 -1 -8 -2 -8 -2 -8 -3 -8 -3 -8 -4 -8 -4 -8 -4 -8 -5 -7 -5 -7 -5 -7 -6 -7 -6 0 0zm150 -150l-150 150 -4 -4 -4 -4 -3 -4 -3 -4 -3 -4 -3 -5 -2 -5 -2 -5 -2 -5 -2 -5 -1 -5 -1 -5 -1 -5 -1 -5 0 -5 0 -5 0 -5 0 -5 1 -5 1 -5 1 -5 1 -5 2 -5 2 -5 2 -5 2 -5 3 -5 3 -4 3 -4 3 -4 4 -4 4 -4 4 -4 4 -4 4 -3 4 -3 4 -3 5 -3 5 -2 5 -2 5 -2 5 -2 5 -1 5 -1 5 -1 5 -1 5 0 5 0 5 0 5 0 5 1 5 1 5 1 5 1 5 2 5 2 5 2 5 2 5 3 4 3 4 3 4 3 4 4 4 4z"/>
     </g>
     <g>
      <path class="fil1" d="M5499 8975l-282 -282 -282 282c-28,28 -74,28 -102,0l0 0c-28,-28 -28,-74 0,-102l282 -282 -282 -282c-28,-28 -28,-74 0,-102l0 0c28,-28 74,-28 102,0l282 282 282 -282c28,-28 74,-28 102,0l0 0c28,28 28,74 0,102l-282 282 282 282c28,28 28,74 0,102l0 0c-28,28 -74,28 -102,0z"/>
      <path id="1" class="fil0" d="M5292 8618l282 282 -150 150 -282 -282 0 -150 150 0zm0 0l-150 150 -4 -4 -4 -4 -3 -4 -3 -4 -3 -4 -3 -5 -2 -5 -2 -5 -2 -5 -2 -5 -1 -5 -1 -5 -1 -5 -1 -5 0 -5 0 -5 0 -5 0 -5 1 -5 1 -5 1 -5 1 -5 2 -5 2 -5 2 -5 2 -5 3 -5 3 -4 3 -4 3 -4 4 -4 4 -4 4 -4 4 -4 4 -3 4 -3 4 -3 5 -3 5 -2 5 -2 5 -2 5 -2 5 -1 5 -1 5 -1 5 -1 5 0 5 0 5 0 5 0 5 1 5 1 5 1 5 1 5 2 5 2 5 2 5 2 5 3 4 3 4 3 4 3 4 4 4 4zm-432 282l282 -282 150 150 -282 282 0 0 -150 -150zm0 0l150 150 -4 4 -4 4 -4 3 -4 3 -4 3 -5 3 -5 2 -5 2 -5 2 -5 2 -5 1 -5 1 -5 1 -5 1 -5 0 -5 0 -5 0 -5 0 -5 -1 -5 -1 -5 -1 -5 -1 -5 -2 -5 -2 -5 -2 -5 -2 -5 -3 -4 -3 -4 -3 -4 -3 -4 -4 -4 -4 -4 -4 -4 -4 -3 -4 -3 -4 -3 -4 -3 -5 -2 -5 -2 -5 -2 -5 -2 -5 -1 -5 -1 -5 -1 -5 -1 -5 0 -5 0 -5 0 -5 0 -5 1 -5 1 -5 1 -5 1 -5 2 -5 2 -5 2 -5 2 -5 3 -5 3 -4 3 -4 3 -4 4 -4 4 -4zm-102 150l150 -150 0 0 -1 -1 -1 -1 -1 -1 -1 -1 -1 -1 -1 -1 -1 -1 -2 -1 -2 -1 -2 -1 -2 0 -2 0 -2 0 -2 0 -2 0 -2 0 -2 0 -2 0 -2 0 -2 0 -2 0 -2 0 -2 1 -2 1 -2 1 -1 1 -1 1 -1 1 -1 1 -1 1 -1 1 -1 1 150 150 -7 6 -7 6 -7 5 -7 5 -8 5 -8 4 -8 4 -8 4 -8 3 -8 3 -8 2 -8 2 -8 1 -8 1 -8 1 -9 0 -9 0 -8 -1 -8 -1 -8 -1 -8 -2 -8 -2 -8 -3 -8 -3 -8 -4 -8 -4 -8 -4 -8 -5 -7 -5 -7 -5 -7 -6 -7 -6 0 0zm150 -150l-150 150 -4 -4 -4 -4 -3 -4 -3 -4 -3 -4 -3 -5 -2 -5 -2 -5 -2 -5 -2 -5 -1 -5 -1 -5 -1 -5 -1 -5 0 -5 0 -5 0 -5 0 -5 1 -5 1 -5 1 -5 1 -5 2 -5 2 -5 2 -5 2 -5 3 -5 3 -4 3 -4 3 -4 4 -4 4 -4 4 -4 4 -4 4 -3 4 -3 4 -3 5 -3 5 -2 5 -2 5 -2 5 -2 5 -1 5 -1 5 -1 5 -1 5 0 5 0 5 0 5 0 5 1 5 1 5 1 5 1 5 2 5 2 5 2 5 2 5 3 4 3 4 3 4 3 4 4 4 4zm-75 75l0 0 0 0 0 0 -75 75 75 -75zm75 -75l-150 150 -4 -4 -4 -4 -3 -4 -3 -4 -3 -4 -3 -5 -2 -5 -2 -5 -2 -5 -2 -5 -1 -5 -1 -5 -1 -5 -1 -5 0 -5 0 -5 0 -5 0 -5 1 -5 1 -5 1 -5 1 -5 2 -5 2 -5 2 -5 2 -5 3 -5 3 -4 3 -4 3 -4 4 -4 4 -4 4 -4 4 -4 4 -3 4 -3 4 -3 5 -3 5 -2 5 -2 5 -2 5 -2 5 -1 5 -1 5 -1 5 -1 5 0 5 0 5 0 5 0 5 1 5 1 5 1 5 1 5 2 5 2 5 2 5 2 5 3 4 3 4 3 4 3 4 4 4 4zm-150 -102l150 150 0 0 1 -1 1 -1 1 -1 1 -1 1 -1 1 -1 1 -1 1 -2 1 -2 1 -2 0 -2 0 -2 0 -2 0 -2 0 -2 0 -2 0 -2 0 -2 0 -2 0 -2 0 -2 0 -2 -1 -2 -1 -2 -1 -2 -1 -1 -1 -1 -1 -1 -1 -1 -1 -1 -1 -1 -1 -1 -150 150 -6 -7 -6 -7 -5 -7 -5 -7 -5 -8 -4 -8 -4 -8 -4 -8 -3 -8 -3 -8 -2 -8 -2 -8 -1 -8 -1 -8 -1 -8 0 -9 0 -9 1 -8 1 -8 1 -8 2 -8 2 -8 3 -8 3 -8 4 -8 4 -8 4 -8 5 -8 5 -7 5 -7 6 -7 6 -7 0 0zm150 150l-150 -150 4 -4 4 -4 4 -3 4 -3 4 -3 5 -3 5 -2 5 -2 5 -2 5 -2 5 -1 5 -1 5 -1 5 -1 5 0 5 0 5 0 5 0 5 1 5 1 5 1 5 1 5 2 5 2 5 2 5 2 5 3 4 3 4 3 4 3 4 4 4 4 4 4 4 4 3 4 3 4 3 4 3 5 2 5 2 5 2 5 2 5 1 5 1 5 1 5 1 5 0 5 0 5 0 5 0 5 -1 5 -1 5 -1 5 -1 5 -2 5 -2 5 -2 5 -2 5 -3 5 -3 4 -3 4 -3 4 -4 4 -4 4zm282 -282l-282 282 -150 -150 282 -282 150 0 0 150zm0 0l-150 -150 4 -4 4 -4 4 -3 4 -3 4 -3 5 -3 5 -2 5 -2 5 -2 5 -2 5 -1 5 -1 5 -1 5 -1 5 0 5 0 5 0 5 0 5 1 5 1 5 1 5 1 5 2 5 2 5 2 5 2 5 3 4 3 4 3 4 3 4 4 4 4 4 4 4 4 3 4 3 4 3 4 3 5 2 5 2 5 2 5 2 5 1 5 1 5 1 5 1 5 0 5 0 5 0 5 0 5 -1 5 -1 5 -1 5 -1 5 -2 5 -2 5 -2 5 -2 5 -3 5 -3 4 -3 4 -3 4 -4 4 -4 4zm-282 -432l282 282 -150 150 -282 -282 0 0 150 -150zm0 0l-150 150 -4 -4 -4 -4 -3 -4 -3 -4 -3 -4 -3 -5 -2 -5 -2 -5 -2 -5 -2 -5 -1 -5 -1 -5 -1 -5 -1 -5 0 -5 0 -5 0 -5 0 -5 1 -5 1 -5 1 -5 1 -5 2 -5 2 -5 2 -5 2 -5 3 -5 3 -4 3 -4 3 -4 4 -4 4 -4 4 -4 4 -4 4 -3 4 -3 4 -3 5 -3 5 -2 5 -2 5 -2 5 -2 5 -1 5 -1 5 -1 5 -1 5 0 5 0 5 0 5 0 5 1 5 1 5 1 5 1 5 2 5 2 5 2 5 2 5 3 4 3 4 3 4 3 4 4 4 4zm-150 -102l150 150 0 0 1 -1 1 -1 1 -1 1 -1 1 -1 1 -1 1 -1 1 -2 1 -2 1 -2 0 -2 0 -2 0 -2 0 -2 0 -2 0 -2 0 -2 0 -2 0 -2 0 -2 0 -2 0 -2 -1 -2 -1 -2 -1 -2 -1 -1 -1 -1 -1 -1 -1 -1 -1 -1 -1 -1 -1 -1 -150 150 -6 -7 -6 -7 -5 -7 -5 -7 -5 -8 -4 -8 -4 -8 -4 -8 -3 -8 -3 -8 -2 -8 -2 -8 -1 -8 -1 -8 -1 -8 0 -9 0 -9 1 -8 1 -8 1 -8 2 -8 2 -8 3 -8 3 -8 4 -8 4 -8 4 -8 5 -8 5 -7 5 -7 6 -7 6 -7 0 0zm150 150l-150 -150 4 -4 4 -4 4 -3 4 -3 4 -3 5 -3 5 -2 5 -2 5 -2 5 -2 5 -1 5 -1 5 -1 5 -1 5 0 5 0 5 0 5 0 5 1 5 1 5 1 5 1 5 2 5 2 5 2 5 2 5 3 4 3 4 3 4 3 4 4 4 4 4 4 4 4 3 4 3 4 3 4 3 5 2 5 2 5 2 5 2 5 1 5 1 5 1 5 1 5 0 5 0 5 0 5 0 5 -1 5 -1 5 -1 5 -1 5 -2 5 -2 5 -2 5 -2 5 -3 5 -3 4 -3 4 -3 4 -4 4 -4 4zm-75 -75l0 0 0 0 0 0 -75 -75 75 75zm75 75l-150 -150 4 -4 4 -4 4 -3 4 -3 4 -3 5 -3 5 -2 5 -2 5 -2 5 -2 5 -1 5 -1 5 -1 5 -1 5 0 5 0 5 0 5 0 5 1 5 1 5 1 5 1 5 2 5 2 5 2 5 2 5 3 4 3 4 3 4 3 4 4 4 4 4 4 4 4 3 4 3 4 3 4 3 5 2 5 2 5 2 5 2 5 1 5 1 5 1 5 1 5 0 5 0 5 0 5 0 5 -1 5 -1 5 -1 5 -1 5 -2 5 -2 5 -2 5 -2 5 -3 5 -3 4 -3 4 -3 4 -4 4 -4 4zm102 -150l-150 150 0 0 1 1 1 1 1 1 1 1 1 1 1 1 1 1 2 1 2 1 2 1 2 0 2 0 2 0 2 0 2 0 2 0 2 0 2 0 2 0 2 0 2 0 2 0 2 -1 2 -1 2 -1 1 -1 1 -1 1 -1 1 -1 1 -1 1 -1 1 -1 -150 -150 7 -6 7 -6 7 -5 7 -5 8 -5 8 -4 8 -4 8 -4 8 -3 8 -3 8 -2 8 -2 8 -1 8 -1 8 -1 9 0 9 0 8 1 8 1 8 1 8 2 8 2 8 3 8 3 8 4 8 4 8 4 8 5 7 5 7 5 7 6 7 6 0 0zm-150 150l150 -150 4 4 4 4 3 4 3 4 3 4 3 5 2 5 2 5 2 5 2 5 1 5 1 5 1 5 1 5 0 5 0 5 0 5 0 5 -1 5 -1 5 -1 5 -1 5 -2 5 -2 5 -2 5 -2 5 -3 5 -3 4 -3 4 -3 4 -4 4 -4 4 -4 4 -4 4 -4 3 -4 3 -4 3 -5 3 -5 2 -5 2 -5 2 -5 2 -5 1 -5 1 -5 1 -5 1 -5 0 -5 0 -5 0 -5 0 -5 -1 -5 -1 -5 -1 -5 -1 -5 -2 -5 -2 -5 -2 -5 -2 -5 -3 -4 -3 -4 -3 -4 -3 -4 -4 -4 -4zm282 282l-282 -282 150 -150 282 282 0 150 -150 0zm0 0l150 -150 4 4 4 4 3 4 3 4 3 4 3 5 2 5 2 5 2 5 2 5 1 5 1 5 1 5 1 5 0 5 0 5 0 5 0 5 -1 5 -1 5 -1 5 -1 5 -2 5 -2 5 -2 5 -2 5 -3 5 -3 4 -3 4 -3 4 -4 4 -4 4 -4 4 -4 4 -4 3 -4 3 -4 3 -5 3 -5 2 -5 2 -5 2 -5 2 -5 1 -5 1 -5 1 -5 1 -5 0 -5 0 -5 0 -5 0 -5 -1 -5 -1 -5 -1 -5 -1 -5 -2 -5 -2 -5 -2 -5 -2 -5 -3 -4 -3 -4 -3 -4 -3 -4 -4 -4 -4zm432 -282l-282 282 -150 -150 282 -282 0 0 150 150zm0 0l-150 -150 4 -4 4 -4 4 -3 4 -3 4 -3 5 -3 5 -2 5 -2 5 -2 5 -2 5 -1 5 -1 5 -1 5 -1 5 0 5 0 5 0 5 0 5 1 5 1 5 1 5 1 5 2 5 2 5 2 5 2 5 3 4 3 4 3 4 3 4 4 4 4 4 4 4 4 3 4 3 4 3 4 3 5 2 5 2 5 2 5 2 5 1 5 1 5 1 5 1 5 0 5 0 5 0 5 0 5 -1 5 -1 5 -1 5 -1 5 -2 5 -2 5 -2 5 -2 5 -3 5 -3 4 -3 4 -3 4 -4 4 -4 4zm102 -150l-150 150 0 0 1 1 1 1 1 1 1 1 1 1 1 1 1 1 2 1 2 1 2 1 2 0 2 0 2 0 2 0 2 0 2 0 2 0 2 0 2 0 2 0 2 0 2 0 2 -1 2 -1 2 -1 1 -1 1 -1 1 -1 1 -1 1 -1 1 -1 1 -1 -150 -150 7 -6 7 -6 7 -5 7 -5 8 -5 8 -4 8 -4 8 -4 8 -3 8 -3 8 -2 8 -2 8 -1 8 -1 8 -1 9 0 9 0 8 1 8 1 8 1 8 2 8 2 8 3 8 3 8 4 8 4 8 4 8 5 7 5 7 5 7 6 7 6 0 0zm-150 150l150 -150 4 4 4 4 3 4 3 4 3 4 3 5 2 5 2 5 2 5 2 5 1 5 1 5 1 5 1 5 0 5 0 5 0 5 0 5 -1 5 -1 5 -1 5 -1 5 -2 5 -2 5 -2 5 -2 5 -3 5 -3 4 -3 4 -3 4 -4 4 -4 4 -4 4 -4 4 -4 3 -4 3 -4 3 -5 3 -5 2 -5 2 -5 2 -5 2 -5 1 -5 1 -5 1 -5 1 -5 0 -5 0 -5 0 -5 0 -5 -1 -5 -1 -5 -1 -5 -1 -5 -2 -5 -2 -5 -2 -5 -2 -5 -3 -4 -3 -4 -3 -4 -3 -4 -4 -4 -4zm75 -75l0 0 0 0 0 0 75 -75 -75 75zm-75 75l150 -150 4 4 4 4 3 4 3 4 3 4 3 5 2 5 2 5 2 5 2 5 1 5 1 5 1 5 1 5 0 5 0 5 0 5 0 5 -1 5 -1 5 -1 5 -1 5 -2 5 -2 5 -2 5 -2 5 -3 5 -3 4 -3 4 -3 4 -4 4 -4 4 -4 4 -4 4 -4 3 -4 3 -4 3 -5 3 -5 2 -5 2 -5 2 -5 2 -5 1 -5 1 -5 1 -5 1 -5 0 -5 0 -5 0 -5 0 -5 -1 -5 -1 -5 -1 -5 -1 -5 -2 -5 -2 -5 -2 -5 -2 -5 -3 -4 -3 -4 -3 -4 -3 -4 -4 -4 -4zm150 102l-150 -150 0 0 -1 1 -1 1 -1 1 -1 1 -1 1 -1 1 -1 1 -1 2 -1 2 -1 2 0 2 0 2 0 2 0 2 0 2 0 2 0 2 0 2 0 2 0 2 0 2 0 2 1 2 1 2 1 2 1 1 1 1 1 1 1 1 1 1 1 1 1 1 150 -150 6 7 6 7 5 7 5 7 5 8 4 8 4 8 4 8 3 8 3 8 2 8 2 8 1 8 1 8 1 8 0 9 0 9 -1 8 -1 8 -1 8 -2 8 -2 8 -3 8 -3 8 -4 8 -4 8 -4 8 -5 8 -5 7 -5 7 -6 7 -6 7 0 0zm-150 -150l150 150 -4 4 -4 4 -4 3 -4 3 -4 3 -5 3 -5 2 -5 2 -5 2 -5 2 -5 1 -5 1 -5 1 -5 1 -5 0 -5 0 -5 0 -5 0 -5 -1 -5 -1 -5 -1 -5 -1 -5 -2 -5 -2 -5 -2 -5 -2 -5 -3 -4 -3 -4 -3 -4 -3 -4 -4 -4 -4 -4 -4 -4 -4 -3 -4 -3 -4 -3 -4 -3 -5 -2 -5 -2 -5 -2 -5 -2 -5 -1 -5 -1 -5 -1 -5 -1 -5 0 -5 0 -5 0 -5 0 -5 1 -5 1 -5 1 -5 1 -5 2 -5 2 -5 2 -5 2 -5 3 -5 3 -4 3 -4 3 -4 4 -4 4 -4zm-282 282l282 -282 150 150 -282 282 -150 0 0 -150zm0 0l150 150 -4 4 -4 4 -4 3 -4 3 -4 3 -5 3 -5 2 -5 2 -5 2 -5 2 -5 1 -5 1 -5 1 -5 1 -5 0 -5 0 -5 0 -5 0 -5 -1 -5 -1 -5 -1 -5 -1 -5 -2 -5 -2 -5 -2 -5 -2 -5 -3 -4 -3 -4 -3 -4 -3 -4 -4 -4 -4 -4 -4 -4 -4 -3 -4 -3 -4 -3 -4 -3 -5 -2 -5 -2 -5 -2 -5 -2 -5 -1 -5 -1 -5 -1 -5 -1 -5 0 -5 0 -5 0 -5 0 -5 1 -5 1 -5 1 -5 1 -5 2 -5 2 -5 2 -5 2 -5 3 -5 3 -4 3 -4 3 -4 4 -4 4 -4zm282 432l-282 -282 150 -150 282 282 0 0 -150 150zm0 0l150 -150 4 4 4 4 3 4 3 4 3 4 3 5 2 5 2 5 2 5 2 5 1 5 1 5 1 5 1 5 0 5 0 5 0 5 0 5 -1 5 -1 5 -1 5 -1 5 -2 5 -2 5 -2 5 -2 5 -3 5 -3 4 -3 4 -3 4 -4 4 -4 4 -4 4 -4 4 -4 3 -4 3 -4 3 -5 3 -5 2 -5 2 -5 2 -5 2 -5 1 -5 1 -5 1 -5 1 -5 0 -5 0 -5 0 -5 0 -5 -1 -5 -1 -5 -1 -5 -1 -5 -2 -5 -2 -5 -2 -5 -2 -5 -3 -4 -3 -4 -3 -4 -3 -4 -4 -4 -4zm150 102l-150 -150 0 0 -1 1 -1 1 -1 1 -1 1 -1 1 -1 1 -1 1 -1 2 -1 2 -1 2 0 2 0 2 0 2 0 2 0 2 0 2 0 2 0 2 0 2 0 2 0 2 0 2 1 2 1 2 1 2 1 1 1 1 1 1 1 1 1 1 1 1 1 1 150 -150 6 7 6 7 5 7 5 7 5 8 4 8 4 8 4 8 3 8 3 8 2 8 2 8 1 8 1 8 1 8 0 9 0 9 -1 8 -1 8 -1 8 -2 8 -2 8 -3 8 -3 8 -4 8 -4 8 -4 8 -5 8 -5 7 -5 7 -6 7 -6 7 0 0zm-150 -150l150 150 -4 4 -4 4 -4 3 -4 3 -4 3 -5 3 -5 2 -5 2 -5 2 -5 2 -5 1 -5 1 -5 1 -5 1 -5 0 -5 0 -5 0 -5 0 -5 -1 -5 -1 -5 -1 -5 -1 -5 -2 -5 -2 -5 -2 -5 -2 -5 -3 -4 -3 -4 -3 -4 -3 -4 -4 -4 -4 -4 -4 -4 -4 -3 -4 -3 -4 -3 -4 -3 -5 -2 -5 -2 -5 -2 -5 -2 -5 -1 -5 -1 -5 -1 -5 -1 -5 0 -5 0 -5 0 -5 0 -5 1 -5 1 -5 1 -5 1 -5 2 -5 2 -5 2 -5 2 -5 3 -5 3 -4 3 -4 3 -4 4 -4 4 -4zm75 75l0 0 0 0 0 0 75 75 -75 -75zm-75 -75l150 150 -4 4 -4 4 -4 3 -4 3 -4 3 -5 3 -5 2 -5 2 -5 2 -5 2 -5 1 -5 1 -5 1 -5 1 -5 0 -5 0 -5 0 -5 0 -5 -1 -5 -1 -5 -1 -5 -1 -5 -2 -5 -2 -5 -2 -5 -2 -5 -3 -4 -3 -4 -3 -4 -3 -4 -4 -4 -4 -4 -4 -4 -4 -3 -4 -3 -4 -3 -4 -3 -5 -2 -5 -2 -5 -2 -5 -2 -5 -1 -5 -1 -5 -1 -5 -1 -5 0 -5 0 -5 0 -5 0 -5 1 -5 1 -5 1 -5 1 -5 2 -5 2 -5 2 -5 2 -5 3 -5 3 -4 3 -4 3 -4 4 -4 4 -4zm-102 150l150 -150 0 0 -1 -1 -1 -1 -1 -1 -1 -1 -1 -1 -1 -1 -1 -1 -2 -1 -2 -1 -2 -1 -2 0 -2 0 -2 0 -2 0 -2 0 -2 0 -2 0 -2 0 -2 0 -2 0 -2 0 -2 0 -2 1 -2 1 -2 1 -1 1 -1 1 -1 1 -1 1 -1 1 -1 1 -1 1 150 150 -7 6 -7 6 -7 5 -7 5 -8 5 -8 4 -8 4 -8 4 -8 3 -8 3 -8 2 -8 2 -8 1 -8 1 -8 1 -9 0 -9 0 -8 -1 -8 -1 -8 -1 -8 -2 -8 -2 -8 -3 -8 -3 -8 -4 -8 -4 -8 -4 -8 -5 -7 -5 -7 -5 -7 -6 -7 -6 0 0zm150 -150l-150 150 -4 -4 -4 -4 -3 -4 -3 -4 -3 -4 -3 -5 -2 -5 -2 -5 -2 -5 -2 -5 -1 -5 -1 -5 -1 -5 -1 -5 0 -5 0 -5 0 -5 0 -5 1 -5 1 -5 1 -5 1 -5 2 -5 2 -5 2 -5 2 -5 3 -5 3 -4 3 -4 3 -4 4 -4 4 -4 4 -4 4 -4 4 -3 4 -3 4 -3 5 -3 5 -2 5 -2 5 -2 5 -2 5 -1 5 -1 5 -1 5 -1 5 0 5 0 5 0 5 0 5 1 5 1 5 1 5 1 5 2 5 2 5 2 5 2 5 3 4 3 4 3 4 3 4 4 4 4z"/>
     </g>
    </g>
   </g>
   <path class="fil0" d="M5804 17082l401 0 0 553 -401 0 0 773 -715 0 0 -773 -1450 0 -34 -428 1478 -2361 721 0 0 2236zm-1551 0l837 0 0 -1294 -14 -3 -73 159 -749 1137zm4731 37c0,418 -109,746 -329,984 -220,238 -510,357 -872,357 -366,-1 -659,-119 -878,-357 -220,-238 -331,-566 -331,-984l0 -981c0,-416 110,-743 329,-983 220,-240 511,-360 875,-360 362,0 653,119 874,360 221,240 332,567 332,983l0 981zm-711 -1055c0,-228 -44,-405 -131,-530 -88,-126 -209,-189 -363,-189 -157,0 -278,63 -363,189 -86,125 -129,302 -129,530l0 1123c0,233 43,413 129,537 87,125 209,187 367,187 154,0 275,-62 361,-187 85,-124 129,-304 129,-537l0 -1123zm3280 1018l401 0 0 553 -401 0 0 773 -715 0 0 -773 -1450 0 -34 -428 1478 -2361 721 0 0 2236zm-1551 0l837 0 0 -1294 -14 -3 -73 159 -749 1137z"/>
   <path class="fil0" d="M3752 19413l0 268 -148 0 0 -738 282 0c85,0 152,22 200,65 49,43 73,100 73,171 0,71 -24,127 -73,170 -49,43 -115,64 -200,64l-134 0zm0 -114l134 0c41,0 73,-11 94,-34 21,-23 32,-51 32,-86 0,-36 -11,-65 -32,-88 -21,-23 -52,-35 -94,-35l-134 0 0 242zm808 223l-239 0 -50 159 -155 0 249 -738 152 0 248 738 -155 0 -50 -159zm-203 -116l167 0 -82 -260 -3 0 -82 260zm1039 174c-23,30 -57,56 -103,78 -46,22 -104,33 -176,33 -89,0 -162,-28 -219,-84 -57,-56 -85,-129 -85,-219l0 -154c0,-89 28,-162 83,-218 55,-56 126,-84 212,-84 90,0 159,21 207,64 48,43 71,100 70,171l-1 3 -140 0c0,-39 -11,-70 -34,-92 -23,-22 -56,-33 -99,-33 -45,0 -82,17 -110,52 -28,35 -42,80 -42,135l0 155c0,56 14,101 43,137 28,35 66,53 114,53 35,0 63,-3 83,-11 20,-7 36,-16 47,-27l0 -143 -142 0 0 -102 291 0 0 285zm548 -224l-274 0 0 211 326 0 0 114 -474 0 0 -738 473 0 0 114 -325 0 0 186 274 0 0 114zm1011 325l-148 0 -298 -498 -3 1 0 497 -148 0 0 -738 148 0 298 497 3 -1 0 -497 148 0 0 738zm733 -303c0,91 -29,166 -86,225 -57,59 -132,88 -223,89 -91,0 -165,-30 -222,-89 -57,-59 -85,-134 -85,-225l0 -133c0,-90 28,-165 85,-224 57,-59 130,-89 221,-89 92,0 166,30 224,89 57,59 86,134 86,224l0 133zm-148 -134c0,-58 -14,-105 -43,-142 -29,-37 -68,-55 -119,-55 -50,0 -89,18 -117,55 -28,37 -42,84 -42,142l0 134c0,59 14,106 42,143 28,37 67,55 118,55 51,0 90,-18 119,-55 28,-37 43,-84 43,-143l0 -134zm766 -188l-211 0 0 624 -148 0 0 -624 -208 0 0 -114 567 0 0 114zm771 317l-284 0 0 307 -148 0 0 -738 483 0 0 114 -335 0 0 203 284 0 0 114zm743 4c0,91 -29,166 -86,225 -57,59 -132,88 -223,89 -91,0 -165,-30 -222,-89 -57,-59 -85,-134 -85,-225l0 -133c0,-90 28,-165 85,-224 57,-59 130,-89 221,-89 92,0 166,30 224,89 57,59 86,134 86,224l0 133zm-148 -134c0,-58 -14,-105 -43,-142 -29,-37 -68,-55 -119,-55 -50,0 -89,18 -117,55 -28,37 -42,84 -42,142l0 134c0,59 14,106 42,143 28,37 67,55 118,55 51,0 90,-18 119,-55 28,-37 43,-84 43,-143l0 -134zm850 -302l0 483c0,83 -28,148 -83,195 -55,47 -127,70 -214,71 -88,0 -159,-24 -213,-71 -55,-47 -82,-112 -82,-195l0 -483 149 0 0 483c0,50 13,87 39,113 26,26 62,39 107,39 46,0 82,-13 109,-39 27,-26 40,-64 40,-113l0 -483 149 0zm725 738l-148 0 -298 -498 -3 1 0 497 -148 0 0 -738 148 0 298 497 3 -1 0 -497 148 0 0 738zm136 0l0 -738 258 0c90,0 165,29 223,87 59,58 88,132 88,222l0 122c0,91 -29,164 -88,222 -59,57 -133,86 -223,86l-258 0zm148 -624l0 511 110 0c49,0 88,-18 118,-55 30,-36 44,-83 44,-140l0 -123c0,-56 -15,-103 -44,-139 -30,-36 -69,-54 -118,-54l-110 0z"/>
   <path class="fil0" d="M2535 2220c-59,-115 -104,-245 -135,-391 -42,-195 -49,-378 -22,-551 28,-173 94,-333 197,-478 104,-145 245,-264 425,-356 241,-124 474,-148 699,-74 225,74 401,235 528,482 105,206 159,429 161,671 2,242 -53,458 -166,646 -112,189 -273,336 -482,443 -181,93 -355,130 -520,110 -165,-20 -305,-77 -418,-172 -114,-96 -203,-206 -266,-330zm393 -211c69,134 167,226 294,274 128,49 258,39 391,-29 108,-55 193,-144 256,-266 63,-123 90,-273 81,-452 -10,-179 -49,-336 -120,-474 -79,-154 -182,-253 -309,-299 -127,-45 -254,-35 -382,30 -195,100 -308,273 -337,519 -29,246 13,477 125,696zm1936 -631c-66,-287 -39,-535 83,-743 122,-208 314,-342 577,-403 227,-52 419,-30 577,66 157,97 260,251 309,464 58,251 28,486 -90,706 -118,220 -310,361 -578,422 -145,34 -281,34 -407,2 -126,-33 -229,-96 -308,-190 -80,-94 -134,-203 -162,-325zm1119 -574c-23,-100 -70,-173 -142,-220 -71,-47 -152,-60 -243,-39 -90,21 -163,67 -220,140 -57,72 -92,166 -106,282 -14,116 -11,219 10,309 26,112 76,193 151,245 75,52 158,67 249,46 114,-26 198,-98 253,-215 78,-165 94,-348 48,-548zm843 181c-7,-295 69,-532 230,-711 161,-179 376,-272 646,-279 233,-6 417,54 552,180 134,126 204,298 210,517 7,257 -70,482 -229,674 -159,192 -376,291 -651,298 -149,4 -282,-23 -399,-80 -117,-57 -205,-140 -264,-248 -59,-109 -91,-225 -94,-351zm1211 -339c-3,-102 -34,-184 -95,-244 -61,-60 -137,-89 -230,-87 -92,2 -173,33 -243,93 -70,59 -123,145 -160,255 -37,111 -54,213 -52,305 3,115 36,204 99,270 63,66 142,97 235,95 117,-3 214,-56 290,-160 109,-146 162,-322 156,-528zm1199 -520l400 71 -60 153c98,-55 187,-92 267,-110 80,-17 163,-18 248,-3 164,29 286,109 365,240 80,131 99,308 59,533 -50,282 -179,505 -386,669 -177,140 -367,192 -569,156 -208,-37 -350,-148 -427,-334l-310 777 -421 -75 833 -2077zm93 941c-22,123 -9,224 39,303 48,79 112,126 193,140 70,13 142,-1 217,-40 74,-39 143,-114 207,-225 64,-110 105,-216 123,-317 21,-117 9,-213 -36,-285 -45,-73 -111,-117 -198,-133 -81,-15 -160,1 -237,47 -77,46 -144,121 -200,227 -57,105 -93,200 -108,283zm1260 507l411 91c2,95 22,170 59,224 37,54 99,98 187,132 90,36 171,44 241,24 49,-13 82,-40 97,-80 11,-27 11,-55 0,-84 -12,-28 -57,-75 -135,-140 -208,-174 -332,-296 -371,-365 -61,-107 -68,-220 -22,-337 46,-117 130,-201 250,-251 167,-70 370,-58 608,35 190,75 319,166 388,274 70,108 94,226 73,356l-392 -80c2,-62 -13,-115 -46,-159 -45,-60 -108,-106 -191,-138 -83,-33 -148,-42 -196,-29 -47,14 -78,39 -92,75 -15,37 -8,75 19,114 17,24 81,80 191,166 171,133 279,240 323,320 62,114 71,225 29,333 -55,140 -162,239 -320,296 -158,57 -343,43 -557,-41 -213,-84 -361,-188 -446,-312 -85,-124 -121,-265 -106,-423zm2163 873l-207 -119 677 -897 348 -396 389 224 -379 421 -829 766zm-378 -52l372 214 -282 314 -368 -212 278 -316z"/>
  </g>
 </g>
</svg>
