<?xml version="1.0" encoding="UTF-8"?>
<!DOCTYPE svg PUBLIC "-//W3C//DTD SVG 1.1//EN" "http://www.w3.org/Graphics/SVG/1.1/DTD/svg11.dtd">
<!-- Creator: CorelDRAW X6 -->
<svg xmlns="http://www.w3.org/2000/svg" xml:space="preserve" width="69.85mm" height="43.0388mm" version="1.1" style="shape-rendering:geometricPrecision; text-rendering:geometricPrecision; image-rendering:optimizeQuality; fill-rule:evenodd; clip-rule:evenodd"
viewBox="0 0 6985 4304"
 xmlns:xlink="http://www.w3.org/1999/xlink">
 <defs>
  <style type="text/css">
   <![CDATA[
    .fil1 {fill:#EE4D64}
    .fil0 {fill:#EE4D64;fill-rule:nonzero}
   ]]>
  </style>
 </defs>
 <g id="Camada_x0020_1">
  <metadata id="CorelCorpID_0Corel-Layer"/>
  <g id="_271412336">
   <path class="fil0" d="M786 4160c-31,41 -77,76 -139,106 -61,30 -141,45 -238,45 -120,0 -219,-38 -295,-114 -76,-76 -115,-174 -115,-294l0 -207c0,-120 37,-218 111,-294 74,-76 169,-114 286,-114 122,0 215,29 279,86 65,58 96,134 94,231l-1 4 -188 0c0,-53 -15,-94 -46,-123 -31,-29 -75,-44 -133,-44 -61,0 -110,24 -148,71 -37,47 -56,108 -56,182l0 209c0,75 19,136 57,184 38,47 90,71 154,71 47,0 85,-5 112,-14 28,-10 49,-22 64,-36l0 -193 -191 0 0 -138 391 0 0 384zm520 -400l4 0 217 -458 218 0 -341 645 0 350 -199 0 0 -360 -335 -634 219 0 217 458zm1053 275l4 0 255 -733 260 0 0 994 -199 0 0 -679 -4 -1 -246 679 -135 0 -246 -681 -4 1 0 680 -199 0 0 -994 262 0 253 733zm902 -99l0 361 -199 0 0 -994 380 0c114,0 204,29 270,87 65,58 98,135 98,230 0,95 -33,172 -98,229 -66,58 -155,87 -270,87l-181 0zm0 -154l181 0c56,0 98,-15 126,-45 29,-30 43,-69 43,-116 0,-48 -14,-87 -43,-119 -28,-31 -71,-47 -127,-47l-181 0 0 326zm1496 107c0,122 -38,223 -115,303 -77,79 -177,119 -300,119 -123,0 -223,-40 -299,-120 -76,-80 -115,-181 -115,-303l0 -179c0,-121 38,-222 114,-302 76,-80 176,-120 298,-120 123,0 224,40 301,120 77,80 116,181 116,302l0 179zm-199 -180c0,-78 -19,-141 -58,-191 -39,-50 -92,-74 -160,-74 -67,0 -120,25 -158,74 -38,50 -56,113 -56,191l0 180c0,79 19,143 57,193 38,50 91,74 158,74 68,0 121,-25 160,-74 38,-50 57,-114 57,-193l0 -180zm570 588l-200 0 0 -994 200 0 0 994zm1001 0l-200 0 -401 -671 -4 1 0 670 -199 0 0 -994 199 0 401 670 4 -1 0 -669 200 0 0 994zm856 -840l-284 0 0 840 -199 0 0 -840 -280 0 0 -154 763 0 0 154z"/>
   <g>
    <g>
     <path class="fil0" d="M1516 708l0 0 0 -176 0 0 0 0 0 176zm330 154l-176 0 0 0 0 -8 -1 -8 -1 -8 -1 -8 -2 -7 -2 -7 -2 -7 -3 -7 -3 -7 -3 -7 -4 -6 -4 -6 -4 -6 -5 -6 -5 -6 -5 -5 -5 -5 -6 -5 -6 -5 -6 -4 -6 -4 -6 -4 -7 -3 -7 -3 -7 -3 -7 -2 -7 -2 -7 -2 -8 -1 -8 -1 -8 -1 -8 0 0 -176 17 0 17 1 16 2 16 3 16 4 16 4 15 5 15 6 15 7 14 7 14 8 13 9 13 9 12 10 12 10 11 11 11 11 10 12 10 12 9 13 9 13 8 14 7 14 7 15 6 15 5 15 4 16 4 16 3 16 2 16 1 17 0 17 0 0zm-176 691l0 -691 176 0 0 691 0 0 -176 0zm-154 330l0 -176 0 0 8 0 8 -1 8 -1 8 -1 7 -2 7 -2 7 -2 7 -3 7 -3 7 -3 6 -4 6 -4 6 -4 6 -5 6 -5 5 -5 5 -5 5 -6 5 -6 4 -6 4 -6 4 -6 3 -7 3 -7 3 -7 2 -7 2 -7 2 -7 1 -8 1 -8 1 -8 0 -8 176 0 0 17 -1 17 -2 16 -3 16 -4 16 -4 16 -5 15 -6 15 -7 15 -7 14 -8 14 -9 13 -9 13 -10 12 -10 12 -11 11 -11 11 -12 10 -12 10 -13 9 -13 9 -14 8 -14 7 -15 7 -15 6 -15 5 -16 4 -16 4 -16 3 -16 2 -17 1 -17 0 0 0zm0 -176l0 0 0 176 0 0 0 0 0 -176zm-330 -154l176 0 0 0 0 8 1 8 1 8 1 8 2 7 2 7 2 7 3 7 3 7 3 7 4 6 4 6 4 6 5 6 5 6 5 5 5 5 6 5 6 5 6 4 6 4 6 4 7 3 7 3 7 3 7 2 7 2 7 2 8 1 8 1 8 1 8 0 0 176 -17 0 -17 -1 -16 -2 -16 -3 -16 -4 -16 -4 -15 -5 -15 -6 -15 -7 -14 -7 -14 -8 -13 -9 -13 -9 -12 -10 -12 -10 -11 -11 -11 -11 -10 -12 -10 -12 -9 -13 -9 -13 -8 -14 -7 -14 -7 -15 -6 -15 -5 -15 -4 -16 -4 -16 -3 -16 -2 -16 -1 -17 0 -17 0 0zm176 -691l0 691 -176 0 0 -691 0 0 176 0zm154 -330l0 176 0 0 -8 0 -8 1 -8 1 -8 1 -7 2 -7 2 -7 2 -7 3 -7 3 -7 3 -6 4 -6 4 -6 4 -6 5 -6 5 -5 5 -5 5 -5 6 -5 6 -4 6 -4 6 -4 6 -3 7 -3 7 -3 7 -2 7 -2 7 -2 7 -1 8 -1 8 -1 8 0 8 -176 0 0 -17 1 -17 2 -16 3 -16 4 -16 4 -16 5 -15 6 -15 7 -15 7 -14 8 -14 9 -13 9 -13 10 -12 10 -12 11 -11 11 -11 12 -10 12 -10 13 -9 13 -9 14 -8 14 -7 15 -7 15 -6 15 -5 16 -4 16 -4 16 -3 16 -2 17 -1 17 0 0 0z"/>
    </g>
    <g>
     <path class="fil0" d="M1999 319l0 0 0 0 0 0 0 -88 0 88zm330 242l-176 0 0 0 0 -8 -1 -8 -1 -8 -1 -8 -2 -7 -2 -7 -2 -7 -3 -7 -3 -7 -3 -7 -4 -6 -4 -6 -4 -6 -5 -6 -5 -6 -5 -5 -5 -5 -6 -5 -6 -5 -6 -4 -6 -4 -6 -4 -7 -3 -7 -3 -7 -3 -7 -2 -7 -2 -7 -2 -8 -1 -8 -1 -8 -1 -8 0 0 -176 17 0 17 1 16 2 16 3 16 4 16 4 15 5 15 6 15 7 14 7 14 8 13 9 13 9 12 10 12 10 11 11 11 11 10 12 10 12 9 13 9 13 8 14 7 14 7 15 6 15 5 15 4 16 4 16 3 16 2 16 1 17 0 17 0 0zm-176 1287l0 -1287 176 0 0 1287 0 0 -176 0zm-154 330l0 -176 0 0 8 0 8 -1 8 -1 8 -1 7 -2 7 -2 7 -2 7 -3 7 -3 7 -3 6 -4 6 -4 6 -4 6 -5 6 -5 5 -5 5 -5 5 -6 5 -6 4 -6 4 -6 4 -6 3 -7 3 -7 3 -7 2 -7 2 -7 2 -7 1 -8 1 -8 1 -8 0 -8 176 0 0 17 -1 17 -2 16 -3 16 -4 16 -4 16 -5 15 -6 15 -7 15 -7 14 -8 14 -9 13 -9 13 -10 12 -10 12 -11 11 -11 11 -12 10 -12 10 -13 9 -13 9 -14 8 -14 7 -15 7 -15 6 -15 5 -16 4 -16 4 -16 3 -16 2 -17 1 -17 0 0 0zm0 -88l0 0 0 0 0 0 0 88 0 -88zm-330 -242l176 0 0 0 0 8 1 8 1 8 1 8 2 7 2 7 2 7 3 7 3 7 3 7 4 6 4 6 4 6 5 6 5 6 5 5 5 5 6 5 6 5 6 4 6 4 6 4 7 3 7 3 7 3 7 2 7 2 7 2 8 1 8 1 8 1 8 0 0 176 -17 0 -17 -1 -16 -2 -16 -3 -16 -4 -16 -4 -15 -5 -15 -6 -15 -7 -14 -7 -14 -8 -13 -9 -13 -9 -12 -10 -12 -10 -11 -11 -11 -11 -10 -12 -10 -12 -9 -13 -9 -13 -8 -14 -7 -14 -7 -15 -6 -15 -5 -15 -4 -16 -4 -16 -3 -16 -2 -16 -1 -17 0 -17 0 0zm176 -1287l0 1287 -176 0 0 -1287 0 0 176 0zm154 -330l0 176 0 0 -8 0 -8 1 -8 1 -8 1 -7 2 -7 2 -7 2 -7 3 -7 3 -7 3 -6 4 -6 4 -6 4 -6 5 -6 5 -5 5 -5 5 -5 6 -5 6 -4 6 -4 6 -4 6 -3 7 -3 7 -3 7 -2 7 -2 7 -2 7 -1 8 -1 8 -1 8 0 8 -176 0 0 -17 1 -17 2 -16 3 -16 4 -16 4 -16 5 -15 6 -15 7 -15 7 -14 8 -14 9 -13 9 -13 10 -12 10 -12 11 -11 11 -11 12 -10 12 -10 13 -9 13 -9 14 -8 14 -7 15 -7 15 -6 15 -5 16 -4 16 -4 16 -3 16 -2 17 -1 17 0 0 0z"/>
    </g>
    <g id="_271746200">
     <g>
      <path class="fil1" d="M2473 -6l0 0c180,0 328,153 328,340l0 536 -180 0 0 -520c0,-91 -60,-165 -147,-165l0 0c-87,0 -143,74 -143,165l0 1461 -177 0 0 -1477c0,-187 140,-340 320,-340z"/>
      <path class="fil1" d="M2714 773l1229 0c52,0 94,42 94,94l0 0c0,52 -42,94 -94,94l-1229 0c-52,0 -94,-42 -94,-94l0 0c0,-52 42,-94 94,-94z"/>
     </g>
     <path class="fil1" d="M2473 2420l0 0c180,0 328,-153 328,-340l0 -89 0 -445 0 -2 0 0c-1,-51 -41,-92 -90,-92l0 0c-49,0 -89,41 -90,92l0 0 0 2 0 445 0 73c0,91 -60,165 -147,165l0 0c-87,0 -143,-74 -143,-165l0 -1461 -177 0 0 1477c0,187 140,340 320,340z"/>
    </g>
    <path class="fil1" d="M2706 1141c55,0 99,44 99,99 0,55 -44,99 -99,99 -55,0 -99,-44 -99,-99 0,-55 44,-99 99,-99z"/>
   </g>
   <g>
    <g>
     <path class="fil0" d="M5510 1706l0 0 0 176 0 0 0 0 0 -176zm-330 -154l176 0 0 0 0 8 1 8 1 8 1 8 2 7 2 7 2 7 3 7 3 7 3 7 4 6 4 6 4 6 5 6 5 6 5 5 5 5 6 5 6 5 6 4 6 4 6 4 7 3 7 3 7 3 7 2 7 2 7 2 8 1 8 1 8 1 8 0 0 176 -17 0 -17 -1 -16 -2 -16 -3 -16 -4 -16 -4 -15 -5 -15 -6 -15 -7 -14 -7 -14 -8 -13 -9 -13 -9 -12 -10 -12 -10 -11 -11 -11 -11 -10 -12 -10 -12 -9 -13 -9 -13 -8 -14 -7 -14 -7 -15 -6 -15 -5 -15 -4 -16 -4 -16 -3 -16 -2 -16 -1 -17 0 -17 0 0zm176 -691l0 691 -176 0 0 -691 0 0 176 0zm154 -330l0 176 0 0 -8 0 -8 1 -8 1 -8 1 -7 2 -7 2 -7 2 -7 3 -7 3 -7 3 -6 4 -6 4 -6 4 -6 5 -6 5 -5 5 -5 5 -5 6 -5 6 -4 6 -4 6 -4 6 -3 7 -3 7 -3 7 -2 7 -2 7 -2 7 -1 8 -1 8 -1 8 0 8 -176 0 0 -17 1 -17 2 -16 3 -16 4 -16 4 -16 5 -15 6 -15 7 -15 7 -14 8 -14 9 -13 9 -13 10 -12 10 -12 11 -11 11 -11 12 -10 12 -10 13 -9 13 -9 14 -8 14 -7 15 -7 15 -6 15 -5 16 -4 16 -4 16 -3 16 -2 17 -1 17 0 0 0zm0 176l0 0 0 -176 0 0 0 0 0 176zm330 154l-176 0 0 0 0 -8 -1 -8 -1 -8 -1 -8 -2 -7 -2 -7 -2 -7 -3 -7 -3 -7 -3 -7 -4 -6 -4 -6 -4 -6 -5 -6 -5 -6 -5 -5 -5 -5 -6 -5 -6 -5 -6 -4 -6 -4 -6 -4 -7 -3 -7 -3 -7 -3 -7 -2 -7 -2 -7 -2 -8 -1 -8 -1 -8 -1 -8 0 0 -176 17 0 17 1 16 2 16 3 16 4 16 4 15 5 15 6 15 7 14 7 14 8 13 9 13 9 12 10 12 10 11 11 11 11 10 12 10 12 9 13 9 13 8 14 7 14 7 15 6 15 5 15 4 16 4 16 3 16 2 16 1 17 0 17 0 0zm-176 691l0 -691 176 0 0 691 0 0 -176 0zm-154 330l0 -176 0 0 8 0 8 -1 8 -1 8 -1 7 -2 7 -2 7 -2 7 -3 7 -3 7 -3 6 -4 6 -4 6 -4 6 -5 6 -5 5 -5 5 -5 5 -6 5 -6 4 -6 4 -6 4 -6 3 -7 3 -7 3 -7 2 -7 2 -7 2 -7 1 -8 1 -8 1 -8 0 -8 176 0 0 17 -1 17 -2 16 -3 16 -4 16 -4 16 -5 15 -6 15 -7 15 -7 14 -8 14 -9 13 -9 13 -10 12 -10 12 -11 11 -11 11 -12 10 -12 10 -13 9 -13 9 -14 8 -14 7 -15 7 -15 6 -15 5 -16 4 -16 4 -16 3 -16 2 -17 1 -17 0 0 0z"/>
    </g>
    <g>
     <path class="fil0" d="M5027 2008l0 0 0 176 0 0 0 0 0 -176zm-330 -154l176 0 0 0 0 8 1 8 1 8 1 8 2 7 2 7 2 7 3 7 3 7 3 7 4 6 4 6 4 6 5 6 5 6 5 5 5 5 6 5 6 5 6 4 6 4 6 4 7 3 7 3 7 3 7 2 7 2 7 2 8 1 8 1 8 1 8 0 0 176 -17 0 -17 -1 -16 -2 -16 -3 -16 -4 -16 -4 -15 -5 -15 -6 -15 -7 -14 -7 -14 -8 -13 -9 -13 -9 -12 -10 -12 -10 -11 -11 -11 -11 -10 -12 -10 -12 -9 -13 -9 -13 -8 -14 -7 -14 -7 -15 -6 -15 -5 -15 -4 -16 -4 -16 -3 -16 -2 -16 -1 -17 0 -17 0 0zm176 -1287l0 1287 -176 0 0 -1287 0 0 176 0zm154 -330l0 176 0 0 -8 0 -8 1 -8 1 -8 1 -7 2 -7 2 -7 2 -7 3 -7 3 -7 3 -6 4 -6 4 -6 4 -6 5 -6 5 -5 5 -5 5 -5 6 -5 6 -4 6 -4 6 -4 6 -3 7 -3 7 -3 7 -2 7 -2 7 -2 7 -1 8 -1 8 -1 8 0 8 -176 0 0 -17 1 -17 2 -16 3 -16 4 -16 4 -16 5 -15 6 -15 7 -15 7 -14 8 -14 9 -13 9 -13 10 -12 10 -12 11 -11 11 -11 12 -10 12 -10 13 -9 13 -9 14 -8 14 -7 15 -7 15 -6 15 -5 16 -4 16 -4 16 -3 16 -2 17 -1 17 0 0 0zm0 176l0 0 0 -176 0 0 0 0 0 176zm330 154l-176 0 0 0 0 -8 -1 -8 -1 -8 -1 -8 -2 -7 -2 -7 -2 -7 -3 -7 -3 -7 -3 -7 -4 -6 -4 -6 -4 -6 -5 -6 -5 -6 -5 -5 -5 -5 -6 -5 -6 -5 -6 -4 -6 -4 -6 -4 -7 -3 -7 -3 -7 -3 -7 -2 -7 -2 -7 -2 -8 -1 -8 -1 -8 -1 -8 0 0 -176 17 0 17 1 16 2 16 3 16 4 16 4 15 5 15 6 15 7 14 7 14 8 13 9 13 9 12 10 12 10 11 11 11 11 10 12 10 12 9 13 9 13 8 14 7 14 7 15 6 15 5 15 4 16 4 16 3 16 2 16 1 17 0 17 0 0zm-176 1287l0 -1287 176 0 0 1287 0 0 -176 0zm-154 330l0 -176 0 0 8 0 8 -1 8 -1 8 -1 7 -2 7 -2 7 -2 7 -3 7 -3 7 -3 6 -4 6 -4 6 -4 6 -5 6 -5 5 -5 5 -5 5 -6 5 -6 4 -6 4 -6 4 -6 3 -7 3 -7 3 -7 2 -7 2 -7 2 -7 1 -8 1 -8 1 -8 0 -8 176 0 0 17 -1 17 -2 16 -3 16 -4 16 -4 16 -5 15 -6 15 -7 15 -7 14 -8 14 -9 13 -9 13 -10 12 -10 12 -11 11 -11 11 -12 10 -12 10 -13 9 -13 9 -14 8 -14 7 -15 7 -15 6 -15 5 -16 4 -16 4 -16 3 -16 2 -17 1 -17 0 0 0z"/>
    </g>
    <g>
     <g>
      <path class="fil1" d="M4553 2420l0 0c-180,0 -328,-153 -328,-340l0 -536 180 0 0 520c0,91 60,165 147,165l0 0c87,0 143,-74 143,-165l0 -1461 177 0 0 1477c0,187 -140,340 -320,340z"/>
      <path class="fil1" d="M4312 1641l-1229 0c-52,0 -94,-42 -94,-94l0 0c0,-52 42,-94 94,-94l1229 0c52,0 94,42 94,94l0 0c0,52 -42,94 -94,94z"/>
     </g>
     <path class="fil1" d="M4553 -6l0 0c-180,0 -328,153 -328,340l0 89 0 445 0 2 0 0c1,51 41,92 90,92l0 0c49,0 89,-41 90,-92l0 0 0 -2 0 -445 0 -73c0,-91 60,-165 147,-165l0 0c87,0 143,74 143,165l0 1461 177 0 0 -1477c0,-187 -140,-340 -320,-340z"/>
    </g>
    <path class="fil1" d="M4320 1273c-55,0 -99,-44 -99,-99 0,-55 44,-99 99,-99 55,0 99,44 99,99 0,55 -44,99 -99,99z"/>
   </g>
  </g>
 </g>
</svg>
