<?xml version="1.0" encoding="UTF-8"?>
<!DOCTYPE svg PUBLIC "-//W3C//DTD SVG 1.1//EN" "http://www.w3.org/Graphics/SVG/1.1/DTD/svg11.dtd">
<!-- Creator: CorelDRAW X6 -->
<svg xmlns="http://www.w3.org/2000/svg" xml:space="preserve" width="47.625mm" height="8.4666mm" version="1.1" style="shape-rendering:geometricPrecision; text-rendering:geometricPrecision; image-rendering:optimizeQuality; fill-rule:evenodd; clip-rule:evenodd"
viewBox="0 0 4763 847"
 xmlns:xlink="http://www.w3.org/1999/xlink">
 <defs>
  <style type="text/css">
   <![CDATA[
    .fil1 {fill:#EE4D64}
    .fil0 {fill:#EE4D64;fill-rule:nonzero}
   ]]>
  </style>
 </defs>
 <g id="Camada_x0020_1">
  <metadata id="CorelCorpID_0Corel-Layer"/>
  <g id="_272704440">
   <g>
    <g>
     <g>
      <path class="fil0" d="M160 251l0 0 0 -61 0 0 0 0 0 61zm114 53l-61 0 0 0 0 -3 0 -3 0 -3 0 -3 -1 -2 -1 -2 -1 -2 -1 -2 -1 -2 -1 -2 -1 -2 -1 -2 -1 -2 -2 -2 -2 -2 -2 -2 -2 -2 -2 -2 -2 -2 -2 -1 -2 -1 -2 -1 -2 -1 -2 -1 -2 -1 -2 -1 -2 -1 -2 -1 -3 0 -3 0 -3 0 -3 0 0 -61 6 0 6 0 6 1 6 1 6 1 6 1 5 2 5 2 5 2 5 2 5 3 4 3 4 3 4 3 4 3 4 4 4 4 3 4 3 4 3 4 3 4 3 5 2 5 2 5 2 5 2 5 1 6 1 6 1 6 1 6 0 6 0 6 0 0 1 1zm-61 238l0 -238 61 0 0 238 0 0 -61 0zm-53 114l0 -61 0 0 3 0 3 0 3 0 3 0 2 -1 2 -1 2 -1 2 -1 2 -1 2 -1 2 -1 2 -1 2 -1 2 -2 2 -2 2 -2 2 -2 2 -2 2 -2 1 -2 1 -2 1 -2 1 -2 1 -2 1 -2 1 -2 1 -2 1 -2 0 -3 0 -3 0 -3 0 -3 61 0 0 6 0 6 -1 6 -1 6 -1 6 -1 6 -2 5 -2 5 -2 5 -2 5 -3 5 -3 4 -3 4 -3 4 -3 4 -4 4 -4 4 -4 3 -4 3 -4 3 -4 3 -5 3 -5 2 -5 2 -5 2 -5 2 -6 1 -6 1 -6 1 -6 1 -6 0 -6 0 0 0 -1 1zm0 -61l0 0 0 61 0 0 0 0 0 -61zm-114 -53l61 0 0 0 0 3 0 3 0 3 0 3 1 2 1 2 1 2 1 2 1 2 1 2 1 2 1 2 1 2 2 2 2 2 2 2 2 2 2 2 2 2 2 1 2 1 2 1 2 1 2 1 2 1 2 1 2 1 2 1 3 0 3 0 3 0 3 0 0 61 -6 0 -6 0 -6 -1 -6 -1 -6 -1 -6 -1 -5 -2 -5 -2 -5 -2 -5 -2 -5 -3 -4 -3 -4 -3 -4 -3 -4 -3 -4 -4 -4 -4 -3 -4 -3 -4 -3 -4 -3 -4 -3 -5 -2 -5 -2 -5 -2 -5 -2 -5 -1 -6 -1 -6 -1 -6 -1 -6 0 -6 0 -6 0 0 -1 -1zm61 -238l0 238 -61 0 0 -238 0 0 61 0zm53 -114l0 61 0 0 -3 0 -3 0 -3 0 -3 0 -2 1 -2 1 -2 1 -2 1 -2 1 -2 1 -2 1 -2 1 -2 1 -2 2 -2 2 -2 2 -2 2 -2 2 -2 2 -1 2 -1 2 -1 2 -1 2 -1 2 -1 2 -1 2 -1 2 -1 2 0 3 0 3 0 3 0 3 -61 0 0 -6 0 -6 1 -6 1 -6 1 -6 1 -6 2 -5 2 -5 2 -5 2 -5 3 -5 3 -4 3 -4 3 -4 3 -4 4 -4 4 -4 4 -3 4 -3 4 -3 4 -3 5 -3 5 -2 5 -2 5 -2 5 -2 6 -1 6 -1 6 -1 6 -1 6 0 6 0 0 0 1 -1z"/>
     </g>
     <g>
      <path class="fil0" d="M326 117l0 0 0 0 0 0 0 -30 0 30zm114 83l-61 0 0 0 0 -3 0 -3 0 -3 0 -3 -1 -2 -1 -2 -1 -2 -1 -2 -1 -2 -1 -2 -1 -2 -1 -2 -1 -2 -2 -2 -2 -2 -2 -2 -2 -2 -2 -2 -2 -2 -2 -1 -2 -1 -2 -1 -2 -1 -2 -1 -2 -1 -2 -1 -2 -1 -2 -1 -3 0 -3 0 -3 0 -3 0 0 -61 6 0 6 0 6 1 6 1 6 1 6 1 5 2 5 2 5 2 5 2 5 3 4 3 4 3 4 3 4 3 4 4 4 4 3 4 3 4 3 4 3 4 3 5 2 5 2 5 2 5 2 5 1 6 1 6 1 6 1 6 0 6 0 6 0 0 1 1zm-61 444l0 -444 61 0 0 444 0 0 -61 0zm-53 114l0 -61 0 0 3 0 3 0 3 0 3 0 2 -1 2 -1 2 -1 2 -1 2 -1 2 -1 2 -1 2 -1 2 -1 2 -2 2 -2 2 -2 2 -2 2 -2 2 -2 1 -2 1 -2 1 -2 1 -2 1 -2 1 -2 1 -2 1 -2 1 -2 0 -3 0 -3 0 -3 0 -3 61 0 0 6 0 6 -1 6 -1 6 -1 6 -1 6 -2 5 -2 5 -2 5 -2 5 -3 5 -3 4 -3 4 -3 4 -3 4 -4 4 -4 4 -4 3 -4 3 -4 3 -4 3 -5 3 -5 2 -5 2 -5 2 -5 2 -6 1 -6 1 -6 1 -6 1 -6 0 -6 0 0 0 -1 1zm0 -30l0 0 0 0 0 0 0 30 0 -30zm-114 -83l61 0 0 0 0 3 0 3 0 3 0 3 1 2 1 2 1 2 1 2 1 2 1 2 1 2 1 2 1 2 2 2 2 2 2 2 2 2 2 2 2 2 2 1 2 1 2 1 2 1 2 1 2 1 2 1 2 1 2 1 3 0 3 0 3 0 3 0 0 61 -6 0 -6 0 -6 -1 -6 -1 -6 -1 -6 -1 -5 -2 -5 -2 -5 -2 -5 -2 -5 -3 -4 -3 -4 -3 -4 -3 -4 -3 -4 -4 -4 -4 -3 -4 -3 -4 -3 -4 -3 -4 -3 -5 -2 -5 -2 -5 -2 -5 -2 -5 -1 -6 -1 -6 -1 -6 -1 -6 0 -6 0 -6 0 0 -1 -1zm61 -444l0 444 -61 0 0 -444 0 0 61 0zm53 -114l0 61 0 0 -3 0 -3 0 -3 0 -3 0 -2 1 -2 1 -2 1 -2 1 -2 1 -2 1 -2 1 -2 1 -2 1 -2 2 -2 2 -2 2 -2 2 -2 2 -2 2 -1 2 -1 2 -1 2 -1 2 -1 2 -1 2 -1 2 -1 2 -1 2 0 3 0 3 0 3 0 3 -61 0 0 -6 0 -6 1 -6 1 -6 1 -6 1 -6 2 -5 2 -5 2 -5 2 -5 3 -5 3 -4 3 -4 3 -4 3 -4 4 -4 4 -4 4 -3 4 -3 4 -3 4 -3 5 -3 5 -2 5 -2 5 -2 5 -2 6 -1 6 -1 6 -1 6 -1 6 0 6 0 0 0 1 -1z"/>
     </g>
     <g id="_271746200">
      <g>
       <path class="fil1" d="M490 5l0 0c62,0 113,53 113,117l0 185 -62 0 0 -179c0,-31 -21,-57 -51,-57l0 0c-30,0 -49,26 -49,57l0 504 -61 0 0 -509c0,-64 48,-117 110,-117l0 0z"/>
       <path class="fil1" d="M573 274l424 0c18,0 32,14 32,32l0 0c0,18 -14,32 -32,32l-424 0c-18,0 -32,-14 -32,-32l0 0c0,-18 14,-32 32,-32z"/>
      </g>
      <path class="fil1" d="M490 841l0 0c62,0 113,-53 113,-117l0 -31 0 -153 0 -1 0 0c0,-18 -14,-32 -31,-32l0 0c-17,0 -31,14 -31,32l0 0 0 1 0 153 0 25c0,31 -21,57 -51,57l0 0c-30,0 -49,-26 -49,-57l0 -504 -61 0 0 509c0,64 48,117 110,117l0 0z"/>
     </g>
     <path class="fil1" d="M570 401c19,0 34,15 34,34 0,19 -15,34 -34,34 -19,0 -34,-15 -34,-34 0,-19 15,-34 34,-34z"/>
    </g>
    <g>
     <g>
      <path class="fil0" d="M1536 595l0 0 0 61 0 0 0 0 0 -61zm-114 -53l61 0 0 0 0 3 0 3 0 3 0 3 1 2 1 2 1 2 1 2 1 2 1 2 1 2 1 2 1 2 2 2 2 2 2 2 2 2 2 2 2 2 2 1 2 1 2 1 2 1 2 1 2 1 2 1 2 1 2 1 3 0 3 0 3 0 3 0 0 61 -6 0 -6 0 -6 -1 -6 -1 -6 -1 -6 -1 -5 -2 -5 -2 -5 -2 -5 -2 -5 -3 -4 -3 -4 -3 -4 -3 -4 -3 -4 -4 -4 -4 -3 -4 -3 -4 -3 -4 -3 -4 -3 -5 -2 -5 -2 -5 -2 -5 -2 -5 -1 -6 -1 -6 -1 -6 -1 -6 0 -6 0 -6 0 0 -1 -1zm61 -238l0 238 -61 0 0 -238 0 0 61 0zm53 -114l0 61 0 0 -3 0 -3 0 -3 0 -3 0 -2 1 -2 1 -2 1 -2 1 -2 1 -2 1 -2 1 -2 1 -2 1 -2 2 -2 2 -2 2 -2 2 -2 2 -2 2 -1 2 -1 2 -1 2 -1 2 -1 2 -1 2 -1 2 -1 2 -1 2 0 3 0 3 0 3 0 3 -61 0 0 -6 0 -6 1 -6 1 -6 1 -6 1 -6 2 -5 2 -5 2 -5 2 -5 3 -5 3 -4 3 -4 3 -4 3 -4 4 -4 4 -4 4 -3 4 -3 4 -3 4 -3 5 -3 5 -2 5 -2 5 -2 5 -2 6 -1 6 -1 6 -1 6 -1 6 0 6 0 0 0 1 -1zm0 61l0 0 0 -61 0 0 0 0 0 61zm114 53l-61 0 0 0 0 -3 0 -3 0 -3 0 -3 -1 -2 -1 -2 -1 -2 -1 -2 -1 -2 -1 -2 -1 -2 -1 -2 -1 -2 -2 -2 -2 -2 -2 -2 -2 -2 -2 -2 -2 -2 -2 -1 -2 -1 -2 -1 -2 -1 -2 -1 -2 -1 -2 -1 -2 -1 -2 -1 -3 0 -3 0 -3 0 -3 0 0 -61 6 0 6 0 6 1 6 1 6 1 6 1 5 2 5 2 5 2 5 2 5 3 4 3 4 3 4 3 4 3 4 4 4 4 3 4 3 4 3 4 3 4 3 5 2 5 2 5 2 5 2 5 1 6 1 6 1 6 1 6 0 6 0 6 0 0 1 1zm-61 238l0 -238 61 0 0 238 0 0 -61 0zm-53 114l0 -61 0 0 3 0 3 0 3 0 3 0 2 -1 2 -1 2 -1 2 -1 2 -1 2 -1 2 -1 2 -1 2 -1 2 -2 2 -2 2 -2 2 -2 2 -2 2 -2 1 -2 1 -2 1 -2 1 -2 1 -2 1 -2 1 -2 1 -2 1 -2 0 -3 0 -3 0 -3 0 -3 61 0 0 6 0 6 -1 6 -1 6 -1 6 -1 6 -2 5 -2 5 -2 5 -2 5 -3 5 -3 4 -3 4 -3 4 -3 4 -4 4 -4 4 -4 3 -4 3 -4 3 -4 3 -5 3 -5 2 -5 2 -5 2 -5 2 -6 1 -6 1 -6 1 -6 1 -6 0 -6 0 0 0 -1 1z"/>
     </g>
     <g>
      <path class="fil0" d="M1370 699l0 0 0 61 0 0 0 0 0 -61zm-114 -53l61 0 0 0 0 3 0 3 0 3 0 3 1 2 1 2 1 2 1 2 1 2 1 2 1 2 1 2 1 2 2 2 2 2 2 2 2 2 2 2 2 2 2 1 2 1 2 1 2 1 2 1 2 1 2 1 2 1 2 1 3 0 3 0 3 0 3 0 0 61 -6 0 -6 0 -6 -1 -6 -1 -6 -1 -6 -1 -5 -2 -5 -2 -5 -2 -5 -2 -5 -3 -4 -3 -4 -3 -4 -3 -4 -3 -4 -4 -4 -4 -3 -4 -3 -4 -3 -4 -3 -4 -3 -5 -2 -5 -2 -5 -2 -5 -2 -5 -1 -6 -1 -6 -1 -6 -1 -6 0 -6 0 -6 0 0 -1 -1zm61 -444l0 444 -61 0 0 -444 0 0 61 0zm53 -114l0 61 0 0 -3 0 -3 0 -3 0 -3 0 -2 1 -2 1 -2 1 -2 1 -2 1 -2 1 -2 1 -2 1 -2 1 -2 2 -2 2 -2 2 -2 2 -2 2 -2 2 -1 2 -1 2 -1 2 -1 2 -1 2 -1 2 -1 2 -1 2 -1 2 0 3 0 3 0 3 0 3 -61 0 0 -6 0 -6 1 -6 1 -6 1 -6 1 -6 2 -5 2 -5 2 -5 2 -5 3 -5 3 -4 3 -4 3 -4 3 -4 4 -4 4 -4 4 -3 4 -3 4 -3 4 -3 5 -3 5 -2 5 -2 5 -2 5 -2 6 -1 6 -1 6 -1 6 -1 6 0 6 0 0 0 1 -1zm0 61l0 0 0 -61 0 0 0 0 0 61zm114 53l-61 0 0 0 0 -3 0 -3 0 -3 0 -3 -1 -2 -1 -2 -1 -2 -1 -2 -1 -2 -1 -2 -1 -2 -1 -2 -1 -2 -2 -2 -2 -2 -2 -2 -2 -2 -2 -2 -2 -2 -2 -1 -2 -1 -2 -1 -2 -1 -2 -1 -2 -1 -2 -1 -2 -1 -2 -1 -3 0 -3 0 -3 0 -3 0 0 -61 6 0 6 0 6 1 6 1 6 1 6 1 5 2 5 2 5 2 5 2 5 3 4 3 4 3 4 3 4 3 4 4 4 4 3 4 3 4 3 4 3 4 3 5 2 5 2 5 2 5 2 5 1 6 1 6 1 6 1 6 0 6 0 6 0 0 1 1zm-61 444l0 -444 61 0 0 444 0 0 -61 0zm-53 114l0 -61 0 0 3 0 3 0 3 0 3 0 2 -1 2 -1 2 -1 2 -1 2 -1 2 -1 2 -1 2 -1 2 -1 2 -2 2 -2 2 -2 2 -2 2 -2 2 -2 1 -2 1 -2 1 -2 1 -2 1 -2 1 -2 1 -2 1 -2 1 -2 0 -3 0 -3 0 -3 0 -3 61 0 0 6 0 6 -1 6 -1 6 -1 6 -1 6 -2 5 -2 5 -2 5 -2 5 -3 5 -3 4 -3 4 -3 4 -3 4 -4 4 -4 4 -4 3 -4 3 -4 3 -4 3 -5 3 -5 2 -5 2 -5 2 -5 2 -6 1 -6 1 -6 1 -6 1 -6 0 -6 0 0 0 -1 1z"/>
     </g>
     <g>
      <g>
       <path class="fil1" d="M1207 841l0 0c-62,0 -113,-53 -113,-117l0 -185 62 0 0 179c0,31 21,57 51,57l0 0c30,0 49,-26 49,-57l0 -504 61 0 0 509c0,64 -48,117 -110,117l0 0z"/>
       <path class="fil1" d="M1124 573l-424 0c-18,0 -32,-14 -32,-32l0 0c0,-18 14,-32 32,-32l424 0c18,0 32,14 32,32l0 0c0,18 -14,32 -32,32z"/>
      </g>
      <path class="fil1" d="M1207 5l0 0c-62,0 -113,53 -113,117l0 31 0 153 0 1 0 0c0,18 14,32 31,32l0 0c17,0 31,-14 31,-32l0 0 0 -1 0 -153 0 -25c0,-31 21,-57 51,-57l0 0c30,0 49,26 49,57l0 504 61 0 0 -509c0,-64 -48,-117 -110,-117l0 0z"/>
     </g>
     <path class="fil1" d="M1126 446c-19,0 -34,-15 -34,-34 0,-19 15,-34 34,-34 19,0 34,15 34,34 0,19 -15,34 -34,34z"/>
    </g>
   </g>
   <path class="fil0" d="M2334 562c-12,16 -30,29 -53,41 -23,12 -54,17 -91,17 -46,0 -84,-15 -113,-44 -29,-29 -44,-67 -44,-113l0 -80c0,-46 14,-84 43,-113 28,-29 65,-44 110,-44 47,0 83,11 107,33 25,22 37,52 36,89l0 2 -72 0c0,-20 -6,-36 -18,-47 -12,-11 -29,-17 -51,-17 -23,0 -42,9 -57,27 -14,18 -22,42 -22,70l0 80c0,29 7,52 22,71 15,18 35,27 59,27 18,0 33,-2 43,-5 11,-4 19,-8 25,-14l0 -74 -73 0 0 -53 150 0 0 148 1 -1zm200 -154l2 0 83 -176 84 0 -131 248 0 135 -76 0 0 -138 -129 -244 84 0 83 176 0 0zm405 106l2 0 98 -282 100 0 0 382 -76 0 0 -261 -2 0 -95 261 -52 0 -95 -262 -2 0 0 261 -76 0 0 -382 101 0 97 282 0 0zm347 -38l0 139 -76 0 0 -382 146 0c44,0 78,11 104,33 25,22 38,52 38,88 0,37 -13,66 -38,88 -25,22 -60,33 -104,33l-70 0 0 0zm0 -59l70 0c22,0 38,-6 48,-17 11,-12 17,-27 17,-45 0,-18 -5,-33 -17,-46 -11,-12 -27,-18 -49,-18l-70 0 0 125 0 0zm575 41c0,47 -15,86 -44,116 -30,30 -68,46 -115,46 -47,0 -86,-15 -115,-46 -29,-31 -44,-70 -44,-116l0 -69c0,-47 15,-85 44,-116 29,-31 68,-46 115,-46 47,0 86,15 116,46 30,31 45,70 45,116l0 69 0 0zm-76 -69c0,-30 -7,-54 -22,-73 -15,-19 -35,-28 -61,-28 -26,0 -46,10 -61,28 -15,19 -22,43 -22,73l0 69c0,30 7,55 22,74 15,19 35,28 61,28 26,0 47,-10 61,-28 15,-19 22,-44 22,-74l0 -69zm219 226l-77 0 0 -382 77 0 0 382zm385 0l-77 0 -154 -258 -2 0 0 257 -76 0 0 -382 76 0 154 257 2 0 0 -257 77 0 0 382zm329 -323l-109 0 0 323 -76 0 0 -323 -108 0 0 -59 293 0 0 59 0 0z"/>
  </g>
 </g>
</svg>
